<?xml version="1.0" encoding="UTF-8"?> <svg xmlns="http://www.w3.org/2000/svg" xmlns:xlink="http://www.w3.org/1999/xlink" id="gradient_green" data-name="gradient green" viewBox="0 0 190 190"><defs><style>.cls-1{fill:url(#linear-gradient);}</style><linearGradient id="linear-gradient" x1="66.73" y1="5.26" x2="114.16" y2="182.28" gradientUnits="userSpaceOnUse"><stop offset="0" stop-color="#00c895"></stop><stop offset="1" stop-color="#00ad93"></stop></linearGradient></defs><title>gradient_green_communication_LARGE</title><path class="cls-1" d="M30.27,138.82a13.65,13.65,0,1,0,13.65,13.65,13.51,13.51,0,0,0-1.71-6.5l6.89-6.81a19.41,19.41,0,0,0,14,3.12L73.2,166.52a13.59,13.59,0,1,0,9-3.46c-.28,0-.54.06-.82.08L71.32,139.08a19.82,19.82,0,0,0,7-24.63l14.46-11.07a27.58,27.58,0,0,0,39.81,5.19l14.82,10.86a13.63,13.63,0,0,0-.83,4.53,13.48,13.48,0,0,0,2.1,7.18l-11.87,12.48a16.9,16.9,0,1,0,4.41,11.31,17.37,17.37,0,0,0-.28-2.8l14.64-15.39a13.81,13.81,0,0,0,4.66.86,13.65,13.65,0,1,0-7.34-25.13L138.46,101.9a27.57,27.57,0,0,0,2.86-23.67,4.43,4.43,0,1,0-8.38,2.85,18.65,18.65,0,0,1,1,6,18.83,18.83,0,1,1-8.74-15.89l.1,0c.06,0,.1.1.16.14a4.43,4.43,0,0,0,6-1.79l15-27.67a13.32,13.32,0,0,0,2.46.25,13.79,13.79,0,1,0-10.16-4.62l-13,24a27.43,27.43,0,0,0-32.79,9L63.87,57.2a20,20,0,0,0,.7-5.18,19.79,19.79,0,0,0-2.92-10.33L83.21,25.75A13.51,13.51,0,0,0,89,27.08,13.65,13.65,0,1,0,75.34,13.43a13.5,13.5,0,0,0,1.47,6L55.42,35.29A19.92,19.92,0,1,0,59.7,65l29.13,13.5a27.47,27.47,0,0,0-.14,16.82L73,107.38a19.89,19.89,0,0,0-30,25.34L35.7,140A13.51,13.51,0,0,0,30.27,138.82Zm0,18.44a4.8,4.8,0,1,1,4.8-4.8A4.79,4.79,0,0,1,30.27,157.26ZM82.2,171.9a4.8,4.8,0,1,1-4.8,4.8A4.79,4.79,0,0,1,82.2,171.9Zm42-8.85a8.13,8.13,0,1,1,8.12-8.13A8.13,8.13,0,0,1,124.23,163.05Zm32.32-42.16s.1-.09.14-.14,0,0,0,0a5.15,5.15,0,1,1-.16.19Zm-7.68-97.15a4.8,4.8,0,0,1,0,9.6,4.75,4.75,0,0,1-2.37-.65s-.05,0-.08-.07l-.1,0a4.79,4.79,0,0,1,2.55-8.85ZM89,8.63a4.8,4.8,0,1,1-4.8,4.79A4.8,4.8,0,0,1,89,8.63ZM44.65,63.08A11.07,11.07,0,1,1,55.72,52,11.07,11.07,0,0,1,44.65,63.08Zm15.49,48.44a11.07,11.07,0,1,1-11.06,11.07A11.08,11.08,0,0,1,60.14,111.52Z"></path></svg> 