<?xml version="1.0" encoding="UTF-8"?> <svg xmlns="http://www.w3.org/2000/svg" xmlns:xlink="http://www.w3.org/1999/xlink" id="gradient_green" data-name="gradient green" viewBox="0 0 190 190"><defs><style>.cls-1{fill:url(#linear-gradient);}</style><linearGradient id="linear-gradient" x1="64.27" y1="19.16" x2="109.15" y2="186.63" gradientUnits="userSpaceOnUse"><stop offset="0" stop-color="#00c895"></stop><stop offset="1" stop-color="#00ad93"></stop></linearGradient></defs><title>gradient_green_architects</title><path class="cls-1" d="M160.48,101V69.17l-27-15.6V33.14L95,10.93,56.53,33.14V53.57l-27,15.6V101L11.13,111.63v44.42L49.6,178.26l18.95-10.94L95,182.59l26.45-15.27,19,10.94,38.47-22.21V111.63ZM95,18l29.24,16.88L95,51.79,65.76,34.92Zm32.31,22.2V74L98.08,90.88V57.12Zm-64.62,0L91.92,57.12V90.88L62.69,74ZM46.52,169.38,17.29,152.5V118.74l29.23,16.88Zm-26.16-56L49.6,96.53l29.23,16.88L49.6,130.29Zm32.32,22.21,29.23-16.88V152.5L52.68,169.38ZM95,175.48,74.71,163.76l13.36-7.71V111.63L49.6,89.42l-13.93,8V72.72l20.86-12V77.56L95,99.76l38.47-22.2V60.68l20.86,12V97.46l-13.93-8-38.47,22.21v44.42l13.36,7.71Zm42.32-6.1L108.09,152.5V118.74l29.23,16.88Zm-26.16-56L140.4,96.53l29.24,16.88L140.4,130.29Zm61.55,39.09-29.23,16.88V135.62l29.23-16.88Z"></path></svg> 