<svg id="Layer_1" data-name="Layer 1" xmlns="http://www.w3.org/2000/svg" viewBox="0 0 42 42"><defs><style>.cls-1{fill:#2a48c6;}</style></defs><title>AMQP</title><g id="AMQP"><polygon class="cls-1" points="3.51 22.34 6.29 22.34 6.29 22.34 6.29 19.57 6.29 18.83 6.29 16.06 3.51 16.06 3.51 18.83 3.51 19.57 3.51 19.57 3.51 19.57 2.77 19.57 0 19.57 0 22.34 2.77 22.34 3.51 22.34"/><polygon class="cls-1" points="7.07 18.83 7.07 19.57 7.07 22.34 7.07 23.13 7.07 23.13 7.07 23.13 6.29 23.13 3.51 23.13 2.77 23.13 0 23.13 0 25.91 2.77 25.91 3.51 25.91 6.29 25.91 7.07 25.91 9.85 25.91 9.85 25.91 9.85 23.13 9.85 22.34 9.85 19.57 9.85 18.83 9.85 16.06 7.07 16.06 7.07 18.83"/><polygon class="cls-1" points="2.77 18.83 2.77 16.06 0 16.06 0 16.06 0 18.83 2.77 18.83 2.77 18.83"/><path class="cls-1" d="M11.78,24.36l-.48,1.22h.26l.1-.28h.49l.11.28h.26L12,24.36Zm0,.74.16-.45.17.45Z"/><path class="cls-1" d="M13.23,24.8a.32.32,0,0,0-.26-.12.35.35,0,0,0-.26.11.59.59,0,0,0,0,.69.32.32,0,0,0,.41.08.25.25,0,0,0,.12-.11v.13h.22V24.36h-.23Zm-.06.55a.17.17,0,0,1-.14.07.19.19,0,0,1-.15-.09.32.32,0,0,1,0-.21.29.29,0,0,1,.05-.2.19.19,0,0,1,.26,0l0,0a.46.46,0,0,1,.06.22A.32.32,0,0,1,13.17,25.35Z"/><path class="cls-1" d="M14.09,25.15l0,.07a.45.45,0,0,1,0,.08l0-.15-.17-.45h-.24l.36.88h.21l.35-.88h-.24Z"/><path class="cls-1" d="M15.36,25.29V25a.52.52,0,0,0,0-.21.22.22,0,0,0-.1-.09.67.67,0,0,0-.24,0,.58.58,0,0,0-.26.06.39.39,0,0,0-.12.19l.21,0a.24.24,0,0,1,.06-.09l.1,0a.27.27,0,0,1,.12,0,.12.12,0,0,1,0,.1v0l-.23.06a.59.59,0,0,0-.19.05.28.28,0,0,0-.1.09.22.22,0,0,0,0,.14.21.21,0,0,0,.08.19.3.3,0,0,0,.21.07.35.35,0,0,0,.14,0,.38.38,0,0,0,.13-.09v0a.14.14,0,0,0,0,.07h.23a.56.56,0,0,1,0-.12A.48.48,0,0,1,15.36,25.29Zm-.23-.09a.49.49,0,0,1,0,.12.16.16,0,0,1-.06.08.21.21,0,0,1-.12,0,.11.11,0,0,1-.09,0,.12.12,0,0,1,0-.08.11.11,0,0,1,0-.09.53.53,0,0,1,.12,0l.14,0Z"/><path class="cls-1" d="M16.33,24.78a.23.23,0,0,0-.09-.08l-.14,0a.36.36,0,0,0-.3.15V24.7h-.21v.88h.23v-.4a.65.65,0,0,1,0-.2.15.15,0,0,1,.06-.09.23.23,0,0,1,.11,0,.11.11,0,0,1,.08,0,.12.12,0,0,1,.05.07.55.55,0,0,1,0,.18v.45h.23V25a.76.76,0,0,0,0-.15A.16.16,0,0,0,16.33,24.78Z"/><path class="cls-1" d="M17.12,25.37a.15.15,0,0,1-.11,0,.2.2,0,0,1-.14-.06.37.37,0,0,1-.05-.23.29.29,0,0,1,.05-.2.2.2,0,0,1,.14-.06.15.15,0,0,1,.11,0,.16.16,0,0,1,.05.1l.23,0a.38.38,0,0,0-.14-.21.48.48,0,0,0-.57.05.57.57,0,0,0,0,.68.39.39,0,0,0,.31.12.38.38,0,0,0,.27-.08.42.42,0,0,0,.14-.24l-.23,0A.26.26,0,0,1,17.12,25.37Z"/><path class="cls-1" d="M18.22,24.81a.37.37,0,0,0-.31-.13.4.4,0,0,0-.29.12.49.49,0,0,0-.11.35.47.47,0,0,0,.08.3.47.47,0,0,0,.59.08.4.4,0,0,0,.14-.19l-.23,0a.21.21,0,0,1-.06.1.16.16,0,0,1-.09,0,.17.17,0,0,1-.14-.06.25.25,0,0,1-.06-.16h.59A.57.57,0,0,0,18.22,24.81Zm-.47.26a.24.24,0,0,1,.05-.16.17.17,0,0,1,.24,0h0a.3.3,0,0,1,.05.16Z"/><path class="cls-1" d="M19.1,24.8a.32.32,0,0,0-.26-.12.35.35,0,0,0-.26.11.49.49,0,0,0-.11.35.48.48,0,0,0,.11.34.32.32,0,0,0,.26.12.28.28,0,0,0,.15,0,.33.33,0,0,0,.13-.11v.13h.21V24.36H19.1Zm-.06.55a.17.17,0,0,1-.14.07.22.22,0,0,1-.16-.09.39.39,0,0,1,0-.21.29.29,0,0,1,.05-.2.2.2,0,0,1,.14-.06.15.15,0,0,1,.14.07.39.39,0,0,1,.06.21.37.37,0,0,1-.06.21Z"/><polygon class="cls-1" points="20.62 25.19 20.4 24.36 20.03 24.36 20.03 25.58 20.26 25.58 20.26 24.62 20.5 25.58 20.74 25.58 20.98 24.62 20.98 25.58 21.21 25.58 21.21 24.36 20.84 24.36 20.62 25.19"/><path class="cls-1" d="M22.1,24.81a.37.37,0,0,0-.31-.13.38.38,0,0,0-.29.12.49.49,0,0,0-.11.35.47.47,0,0,0,.08.3.42.42,0,0,0,.34.15.45.45,0,0,0,.25-.07.4.4,0,0,0,.14-.19l-.24,0a.14.14,0,0,1-.05.1.16.16,0,0,1-.09,0,.17.17,0,0,1-.14-.06.25.25,0,0,1-.06-.16h.59A.62.62,0,0,0,22.1,24.81Zm-.47.26a.24.24,0,0,1,.05-.16.17.17,0,0,1,.24,0h0a.3.3,0,0,1,.05.16Z"/><path class="cls-1" d="M22.81,25a.81.81,0,0,1-.22-.07.05.05,0,0,1,0,0,.08.08,0,0,1,0-.05.24.24,0,0,1,.14,0,.17.17,0,0,1,.12,0,.22.22,0,0,1,0,.08l.22,0a.3.3,0,0,0-.12-.17.43.43,0,0,0-.27-.06.4.4,0,0,0-.28.08.23.23,0,0,0-.09.19.25.25,0,0,0,.1.2,1.65,1.65,0,0,0,.36.11l.08,0s0,0,0,.05a.07.07,0,0,1,0,.06.17.17,0,0,1-.14,0,.19.19,0,0,1-.13,0,.2.2,0,0,1-.06-.11l-.24,0a.35.35,0,0,0,.14.2.47.47,0,0,0,.28.07.4.4,0,0,0,.3-.09.23.23,0,0,0,.1-.2.21.21,0,0,0-.07-.18A.64.64,0,0,0,22.81,25Z"/><path class="cls-1" d="M23.76,25a.81.81,0,0,1-.22-.07s0,0,0-.07l0,0a.2.2,0,0,1,.13,0,.14.14,0,0,1,.11,0,.16.16,0,0,1,.06.08l.22,0a.3.3,0,0,0-.12-.17.45.45,0,0,0-.27-.06.4.4,0,0,0-.28.08.23.23,0,0,0-.09.19.2.2,0,0,0,.1.2,1.5,1.5,0,0,0,.36.11l.08,0a.09.09,0,0,1,0,.05.09.09,0,0,1,0,.06.17.17,0,0,1-.14,0,.17.17,0,0,1-.12,0,.16.16,0,0,1-.07-.11l-.23,0a.35.35,0,0,0,.14.2.45.45,0,0,0,.28.07.4.4,0,0,0,.3-.09.23.23,0,0,0,.1-.2.21.21,0,0,0-.07-.18A.6.6,0,0,0,23.76,25Z"/><path class="cls-1" d="M25,25.29V25a.51.51,0,0,0,0-.21.24.24,0,0,0-.11-.09.63.63,0,0,0-.49,0,.41.41,0,0,0-.13.19l.22,0a.41.41,0,0,1,.05-.09l.1,0a.28.28,0,0,1,.13,0,.15.15,0,0,1,0,.1v0l-.23.06a.61.61,0,0,0-.18.05.22.22,0,0,0-.1.09.23.23,0,0,0,0,.14.27.27,0,0,0,.08.19.34.34,0,0,0,.22.07l.14,0a.34.34,0,0,0,.12-.09v0a.25.25,0,0,1,0,.07h.24a.56.56,0,0,1,0-.12A.91.91,0,0,1,25,25.29Zm-.23-.09a.49.49,0,0,1,0,.12.22.22,0,0,1-.05.08.28.28,0,0,1-.12,0,.13.13,0,0,1-.1,0,.11.11,0,0,1,0-.08.13.13,0,0,1,0-.09.31.31,0,0,1,.13,0l.14,0Z"/><path class="cls-1" d="M25.83,24.82a.32.32,0,0,0-.27-.14.32.32,0,0,0-.26.12.48.48,0,0,0-.11.34.64.64,0,0,0,.08.3.33.33,0,0,0,.55,0v.12a.36.36,0,0,1,0,.11.07.07,0,0,1,0,.06.35.35,0,0,1-.14,0,.23.23,0,0,1-.11,0,.07.07,0,0,1,0-.06l-.26,0v0a.22.22,0,0,0,.09.19.51.51,0,0,0,.32.08.63.63,0,0,0,.19,0,.33.33,0,0,0,.13-.07.24.24,0,0,0,.07-.12.85.85,0,0,0,0-.23v-.79h-.22Zm-.07.51a.17.17,0,0,1-.14.06.16.16,0,0,1-.14-.06.3.3,0,0,1-.05-.21.29.29,0,0,1,.05-.2.2.2,0,0,1,.14-.06.17.17,0,0,1,.14.06.27.27,0,0,1,.06.21.3.3,0,0,1-.06.2Z"/><path class="cls-1" d="M26.93,24.81a.37.37,0,0,0-.31-.13.38.38,0,0,0-.29.12.56.56,0,0,0,0,.65.4.4,0,0,0,.34.15.45.45,0,0,0,.25-.07.4.4,0,0,0,.14-.19l-.24,0a.19.19,0,0,1-.05.1.17.17,0,0,1-.1,0,.2.2,0,0,1-.14-.06.3.3,0,0,1-.05-.16H27A.56.56,0,0,0,26.93,24.81Zm-.47.26a.24.24,0,0,1,.05-.16.17.17,0,0,1,.24,0h0a.3.3,0,0,1,0,.16Z"/><path class="cls-1" d="M28.79,25.25a.87.87,0,0,0,.05-.28.63.63,0,0,0-.16-.46.55.55,0,0,0-.43-.17.54.54,0,0,0-.43.17.56.56,0,0,0-.16.46.63.63,0,0,0,.15.46.57.57,0,0,0,.44.17.76.76,0,0,0,.27-.05l.16.11.11,0,.09-.17a.72.72,0,0,1-.19-.11A.59.59,0,0,0,28.79,25.25Zm-.23-.1a.37.37,0,0,1-.07.14,1,1,0,0,0-.23-.12l-.07.14.15.07a.18.18,0,0,1-.1,0,.31.31,0,0,1-.24-.1.48.48,0,0,1-.09-.32.45.45,0,0,1,.09-.32.29.29,0,0,1,.25-.1.28.28,0,0,1,.24.1.45.45,0,0,1,.09.32A.47.47,0,0,1,28.56,25.15Z"/><path class="cls-1" d="M29.59,25.07a.65.65,0,0,1,0,.24.16.16,0,0,1-.06.08.2.2,0,0,1-.11,0,.11.11,0,0,1-.08,0,.12.12,0,0,1-.05-.07.87.87,0,0,1,0-.23v-.4H29v.56a.58.58,0,0,0,0,.19.2.2,0,0,0,.11.11.29.29,0,0,0,.16,0,.35.35,0,0,0,.29-.15v.13h.22V24.7h-.24Z"/><path class="cls-1" d="M30.72,24.81a.38.38,0,0,0-.31-.13.37.37,0,0,0-.29.12.46.46,0,0,0-.12.35.55.55,0,0,0,.09.3.4.4,0,0,0,.34.15.42.42,0,0,0,.24-.07.3.3,0,0,0,.14-.19l-.23,0a.21.21,0,0,1-.06.1.14.14,0,0,1-.09,0,.18.18,0,0,1-.14-.06.25.25,0,0,1-.06-.16h.59A.63.63,0,0,0,30.72,24.81Zm-.48.26a.24.24,0,0,1,.05-.16.17.17,0,0,1,.24,0h0a.3.3,0,0,1,.05.16Z"/><path class="cls-1" d="M31.58,25.07a1,1,0,0,1,0,.24.16.16,0,0,1-.06.08.2.2,0,0,1-.11,0,.15.15,0,0,1-.09,0,.16.16,0,0,1,0-.07.86.86,0,0,1,0-.23v-.4H31v.56a.58.58,0,0,0,0,.19.22.22,0,0,0,.1.11.32.32,0,0,0,.16,0,.33.33,0,0,0,.17,0,.33.33,0,0,0,.13-.11v.13h.21V24.7h-.23Z"/><rect class="cls-1" x="32.06" y="24.7" width="0.23" height="0.88"/><rect class="cls-1" x="32.06" y="24.36" width="0.23" height="0.22"/><path class="cls-1" d="M33.27,24.78a.23.23,0,0,0-.09-.08l-.14,0a.33.33,0,0,0-.29.15V24.7h-.22v.88h.23v-.4a.65.65,0,0,1,0-.2.15.15,0,0,1,.06-.09.23.23,0,0,1,.11,0l.08,0a.12.12,0,0,1,0,.07.55.55,0,0,1,0,.18v.45h.23V25a.76.76,0,0,0,0-.15A.19.19,0,0,0,33.27,24.78Z"/><path class="cls-1" d="M34.16,24.82a.32.32,0,0,0-.27-.14.36.36,0,0,0-.27.12.52.52,0,0,0-.1.34.47.47,0,0,0,.08.3.35.35,0,0,0,.28.15.34.34,0,0,0,.26-.14v.12a.2.2,0,0,1,0,.11.09.09,0,0,1,0,.06l-.14,0a.2.2,0,0,1-.11,0,.07.07,0,0,1,0-.06l-.27,0v0a.26.26,0,0,0,.1.19A.5.5,0,0,0,34,26a.63.63,0,0,0,.19,0,.26.26,0,0,0,.2-.19.85.85,0,0,0,0-.23v-.79h-.22Zm-.07.51a.18.18,0,0,1-.14.06.15.15,0,0,1-.14-.06.3.3,0,0,1-.05-.21.29.29,0,0,1,.05-.2.19.19,0,0,1,.28,0,.39.39,0,0,1,.06.21A.36.36,0,0,1,34.09,25.33Z"/><path class="cls-1" d="M35.77,24.38l-.29,0h-.4v1.22h.25v-.46h.16a1.14,1.14,0,0,0,.26,0l.12-.05a.41.41,0,0,0,.11-.12.43.43,0,0,0,0-.19A.4.4,0,0,0,36,24.5.36.36,0,0,0,35.77,24.38Zm0,.46-.08.06-.2,0h-.14v-.35h.3a.31.31,0,0,1,.1.05.15.15,0,0,1,0,.11A.2.2,0,0,1,35.74,24.84Z"/><path class="cls-1" d="M36.53,24.71a.35.35,0,0,0-.1.11V24.7h-.22v.88h.23V25.3a1.37,1.37,0,0,1,0-.29.31.31,0,0,1,0-.1.16.16,0,0,1,.09,0,.21.21,0,0,1,.11,0l.07-.2a.3.3,0,0,0-.15,0A.18.18,0,0,0,36.53,24.71Z"/><path class="cls-1" d="M37.28,24.68a.46.46,0,0,0-.23.06.37.37,0,0,0-.17.16.59.59,0,0,0-.05.23.47.47,0,0,0,.05.26.44.44,0,0,0,.17.16.59.59,0,0,0,.23.05.41.41,0,0,0,.33-.13.48.48,0,0,0,0-.66A.42.42,0,0,0,37.28,24.68Zm.16.66a.2.2,0,0,1-.16.07.18.18,0,0,1-.15-.07.36.36,0,0,1,0-.4.18.18,0,0,1,.15-.07.2.2,0,0,1,.16.07.36.36,0,0,1,0,.4Z"/><path class="cls-1" d="M38.23,25.41h0l0,0v-.49h.16V24.7h-.16v-.31l-.23.14v.17h-.11v.19h.11v.38a1,1,0,0,0,0,.17.16.16,0,0,0,0,.09.18.18,0,0,0,.07,0,.27.27,0,0,0,.12,0,.58.58,0,0,0,.18,0l0-.18Z"/><path class="cls-1" d="M38.89,24.68a.53.53,0,0,0-.24.06.35.35,0,0,0-.16.16.46.46,0,0,0-.06.23.58.58,0,0,0,.06.26.44.44,0,0,0,.17.16.59.59,0,0,0,.23.05.42.42,0,0,0,.33-.13.49.49,0,0,0,0-.66A.42.42,0,0,0,38.89,24.68Zm.15.66a.2.2,0,0,1-.3,0,.33.33,0,0,1,0-.4.18.18,0,0,1,.15-.07.17.17,0,0,1,.15.07.32.32,0,0,1,0,.4Z"/><path class="cls-1" d="M40,25.37a.15.15,0,0,1-.11,0,.2.2,0,0,1-.14-.06.37.37,0,0,1-.05-.23.29.29,0,0,1,.05-.2.2.2,0,0,1,.14-.06.15.15,0,0,1,.11,0,.12.12,0,0,1,0,.1l.23,0a.38.38,0,0,0-.14-.21.37.37,0,0,0-.25-.07.43.43,0,0,0-.32.12.57.57,0,0,0,0,.68.41.41,0,0,0,.31.12.36.36,0,0,0,.27-.08.33.33,0,0,0,.14-.24l-.23,0A.16.16,0,0,1,40,25.37Z"/><path class="cls-1" d="M40.88,24.68a.53.53,0,0,0-.24.06.35.35,0,0,0-.16.16.86.86,0,0,0-.06.23.58.58,0,0,0,.06.26.44.44,0,0,0,.17.16.59.59,0,0,0,.23.05.42.42,0,0,0,.33-.13.48.48,0,0,0,0-.66A.42.42,0,0,0,40.88,24.68Zm.15.66a.2.2,0,0,1-.3,0,.33.33,0,0,1,0-.4.18.18,0,0,1,.15-.07.17.17,0,0,1,.15.07.32.32,0,0,1,0,.4Z"/><rect class="cls-1" x="41.52" y="24.36" width="0.23" height="1.22"/><path class="cls-1" d="M16.18,16.17H13.89L11.34,23h2.14l.33-1.12h2.38L16.53,23h2.2Zm-1.91,4.2L15,17.93l.75,2.44Z"/><polygon class="cls-1" points="21.09 17.78 22.41 22.95 23.97 22.95 25.29 17.78 25.29 22.95 27.01 22.95 27.01 16.17 24.25 16.17 23.2 20.3 22.14 16.17 19.38 16.17 19.38 22.95 21.09 22.95 21.09 17.78"/><path class="cls-1" d="M34.89,22.31c-.08,0-.25-.16-.51-.35a3.68,3.68,0,0,0,.74-2.4A3.49,3.49,0,0,0,34.2,17a3.53,3.53,0,0,0-2.61-.91,3.21,3.21,0,0,0-3.5,3.53,3.41,3.41,0,0,0,1.05,2.68,3.51,3.51,0,0,0,2.44.81,4.29,4.29,0,0,0,1.74-.3,5.24,5.24,0,0,0,.6.44,7.61,7.61,0,0,0,.87.51l.59-1.18Zm-2.12-1.42-.23-.15a3.85,3.85,0,0,0-.6-.39,2.23,2.23,0,0,0-.44-.13l-.33.76a2.42,2.42,0,0,1,.84.48,1.75,1.75,0,0,1-.4,0,1.29,1.29,0,0,1-1-.45,2.47,2.47,0,0,1-.38-1.56,2.09,2.09,0,0,1,.39-1.4,1.26,1.26,0,0,1,1-.45,1.32,1.32,0,0,1,1.05.44A2.24,2.24,0,0,1,33,19.54,2.82,2.82,0,0,1,32.77,20.89Z"/><path class="cls-1" d="M41.44,16.71a2.4,2.4,0,0,0-1.71-.54H36.25V23h2.1V20.44H39.5a2.7,2.7,0,0,0,1.89-.58A2.1,2.1,0,0,0,42,18.25,2,2,0,0,0,41.44,16.71Zm-1.73,2.14a1.32,1.32,0,0,1-.85.21h-.51V17.55h.59a1.08,1.08,0,0,1,.8.22.73.73,0,0,1,.22.54A.69.69,0,0,1,39.71,18.85Z"/></g></svg>