<svg id="Layer_1" data-name="Layer 1" xmlns="http://www.w3.org/2000/svg" viewBox="0 0 42 42"><defs><style>.cls-1{fill:#013d59;}.cls-2{fill:#f47a67;}</style></defs><title>boomi</title><path class="cls-1" d="M19,27.83h.47l-.23-.55-.24.55Zm.52.16H19l-.1.23h-.18l.46-1.13h.2l.46,1.13h-.18L19.52,28Z"/><path class="cls-1" d="M21.25,27.66a.36.36,0,0,0-.31-.41h-.37v.81h.28a.35.35,0,0,0,.4-.3.17.17,0,0,0,0-.1m-.38-.57a.56.56,0,0,1,.53.6.55.55,0,0,1-.53.53h-.48V27.09Z"/><path class="cls-1" d="M22.27,27.75a.2.2,0,0,0-.21-.2h0a.22.22,0,0,0-.24.2Zm.11.41a.61.61,0,0,1-.3.08.42.42,0,0,1-.45-.38v0a.41.41,0,0,1,.41-.4.37.37,0,0,1,.39.37.34.34,0,0,1,0,.1h-.62a.25.25,0,0,0,.28.2.53.53,0,0,0,.28-.07l0,.13Z"/><polygon class="cls-1" points="22.66 27.05 22.82 27.05 22.82 28.22 22.66 28.22 22.66 27.05 22.66 27.05"/><polygon class="cls-1" points="23.11 27.05 23.27 27.05 23.27 28.22 23.11 28.22 23.11 27.05 23.11 27.05"/><polygon class="cls-1" points="24.23 27.26 23.86 27.26 23.86 27.09 24.78 27.09 24.78 27.26 24.4 27.26 24.4 28.22 24.23 28.22 24.23 27.26 24.23 27.26"/><path class="cls-1" d="M25.38,27.75a.2.2,0,0,0-.2-.2h0a.22.22,0,0,0-.24.2Zm.12.41a.64.64,0,0,1-.3.08.43.43,0,0,1-.46-.38v0a.4.4,0,0,1,.41-.4h0a.37.37,0,0,1,.39.37.31.31,0,0,1,0,.1H24.9a.26.26,0,0,0,.29.2.53.53,0,0,0,.28-.07l0,.13Z"/><path class="cls-1" d="M26.17,27.41a.49.49,0,0,1,.24.05l0,.15a.42.42,0,0,0-.22-.05.27.27,0,0,0-.29.24v0a.28.28,0,0,0,.27.27h0a.59.59,0,0,0,.23,0l0,.15a.7.7,0,0,1-.25,0,.42.42,0,0,1-.45-.38v0a.4.4,0,0,1,.4-.41h.05"/><path class="cls-1" d="M27.38,27.74v.48h-.16v-.45a.18.18,0,0,0-.16-.2h0a.2.2,0,0,0-.22.18v.47h-.17V27.05h.17v.47a.28.28,0,0,1,.24-.11.3.3,0,0,1,.33.28,0,0,0,0,1,0,0"/><path class="cls-1" d="M28.41,27.74v.48h-.16v-.45a.19.19,0,0,0-.17-.2h0a.2.2,0,0,0-.22.18v.47h-.16v-.79h.16v.1a.33.33,0,0,1,.58.16,0,0,0,0,1,0,0"/><path class="cls-1" d="M29.06,28.08a.25.25,0,0,0,.26-.25.25.25,0,0,0-.25-.27.26.26,0,0,0-.27.26h0a.26.26,0,0,0,.25.26h0m0-.67a.41.41,0,0,1,.41.42.42.42,0,0,1-.84,0h0a.41.41,0,0,1,.41-.4h0"/><polygon class="cls-1" points="29.72 27.05 29.88 27.05 29.88 28.22 29.72 28.22 29.72 27.05 29.72 27.05"/><path class="cls-1" d="M30.54,28.08a.25.25,0,0,0,.26-.26.26.26,0,0,0-.26-.26.26.26,0,0,0-.26.26h0a.26.26,0,0,0,.25.26h0m0-.67a.41.41,0,0,1,.41.42.42.42,0,0,1-.84,0h0a.41.41,0,0,1,.41-.4h0"/><path class="cls-1" d="M31.57,27.56a.26.26,0,0,0-.26.25h0a.26.26,0,0,0,.25.28h0a.26.26,0,0,0,.26-.27h0a.25.25,0,0,0-.25-.26h0m-.43.26a.41.41,0,0,1,.38-.41h0a.32.32,0,0,1,.28.13v-.11H32v.75a.39.39,0,0,1-.39.4h-.06a.71.71,0,0,1-.32-.07l0-.15a.73.73,0,0,0,.29.07c.18,0,.29-.1.29-.24v-.07a.35.35,0,0,1-.29.12.39.39,0,0,1-.4-.4v0"/><path class="cls-1" d="M32.28,27.42h.17v.8h-.17v-.8Zm0-.27a.11.11,0,0,1,.1-.1.1.1,0,0,1,.11.1.12.12,0,0,1-.1.11h0a.1.1,0,0,1-.1-.1h0"/><path class="cls-1" d="M33.32,27.75a.2.2,0,0,0-.2-.2h0a.23.23,0,0,0-.25.2Zm.12.41a.65.65,0,0,1-.31.08.42.42,0,0,1-.45-.38v0a.4.4,0,0,1,.41-.4.37.37,0,0,1,.38.37.17.17,0,0,1,0,.1h-.62a.26.26,0,0,0,.29.2.55.55,0,0,0,.28-.07l0,.13Z"/><path class="cls-1" d="M34.05,27.76c.16,0,.25.1.25.24s-.13.24-.32.24a.81.81,0,0,1-.31-.06l0-.14a.86.86,0,0,0,.27.05q.18,0,.18-.09c0-.06,0-.08-.15-.1l-.12,0a.22.22,0,0,1-.21-.23c0-.13.13-.23.33-.23a.61.61,0,0,1,.27,0l0,.15a.64.64,0,0,0-.24-.05q-.18,0-.18.09c0,.06,0,.08.14.1l.09,0Z"/><path class="cls-1" d="M35.55,28.07a.16.16,0,0,0,.17-.15v0a.17.17,0,0,0-.16-.18h-.39v.35Zm-.07-.49a.16.16,0,0,0,.18-.14v0c0-.11-.09-.16-.19-.16h-.3v.33ZM35,27.09h.49a.32.32,0,0,1,.35.29v0a.27.27,0,0,1-.12.23.26.26,0,0,1,.18.26.31.31,0,0,1-.32.32H35V27.09Z"/><path class="cls-1" d="M36.7,27.43h.16v.47a.36.36,0,1,1-.72,0v-.47h.16v.45a.2.2,0,0,0,.2.2.2.2,0,0,0,.21-.2v-.45Z"/><path class="cls-1" d="M37.48,27.76c.17,0,.25.1.25.24s-.13.24-.33.24a.77.77,0,0,1-.3-.06l0-.14a.66.66,0,0,0,.27.06c.12,0,.18,0,.18-.1s0-.08-.15-.1l-.12,0a.23.23,0,0,1-.21-.24c0-.12.13-.23.33-.23a.65.65,0,0,1,.27.05l0,.14a.69.69,0,0,0-.24-.05c-.12,0-.18,0-.18.1s0,.07.14.09l.09,0Z"/><path class="cls-1" d="M38,27.42h.16v.8H38v-.8Zm0-.27a.09.09,0,0,1,.1-.1.1.1,0,0,1,.1.1.11.11,0,0,1-.1.11h0a.09.09,0,0,1-.1-.1h0"/><path class="cls-1" d="M39.15,27.74v.48H39v-.45a.19.19,0,0,0-.17-.2h0a.2.2,0,0,0-.22.18v.47H38.4v-.79h.17v.1a.29.29,0,0,1,.24-.12.32.32,0,0,1,.34.28v0"/><path class="cls-1" d="M40,27.75a.2.2,0,0,0-.2-.2h0a.23.23,0,0,0-.25.2Zm.12.41a.65.65,0,0,1-.31.08.41.41,0,0,1-.45-.36v-.05a.4.4,0,0,1,.41-.4.38.38,0,0,1,.39.37s0,.07,0,.1h-.63a.26.26,0,0,0,.29.2.55.55,0,0,0,.28-.07l0,.13Z"/><path class="cls-1" d="M40.75,27.76c.16,0,.25.1.25.24s-.13.24-.33.24a.8.8,0,0,1-.3-.06l0-.14a.66.66,0,0,0,.27.06c.12,0,.18,0,.18-.1s0-.08-.15-.1l-.12,0a.23.23,0,0,1-.21-.24c0-.13.13-.23.33-.23a.65.65,0,0,1,.27.05l0,.14a.64.64,0,0,0-.24-.05c-.12,0-.18,0-.18.1s0,.07.14.09l.09,0Z"/><path class="cls-1" d="M41.57,27.76c.16,0,.25.1.25.24s-.14.24-.33.24a.73.73,0,0,1-.3-.06l0-.14a.6.6,0,0,0,.27.06c.12,0,.17,0,.17-.1s0-.08-.14-.1l-.12,0a.24.24,0,0,1-.22-.24c0-.13.14-.23.34-.23a.65.65,0,0,1,.27.05l0,.14a.7.7,0,0,0-.25-.05c-.12,0-.18,0-.18.1s0,.07.14.09l.1,0Z"/><path class="cls-2" d="M42,15.41a.95.95,0,1,1-1.9,0,1,1,0,0,1,.95-.95h0a1,1,0,0,1,1,.95"/><path class="cls-1" d="M13.11,23.92a2.36,2.36,0,0,0,2.41-2.3V21.5a2.41,2.41,0,0,0-4.81-.14v.14A2.35,2.35,0,0,0,13,23.92h.12m0-6.27a3.86,3.86,0,1,1,0,7.72,3.86,3.86,0,1,1,0-7.72"/><path class="cls-1" d="M21.87,23.92a2.35,2.35,0,0,0,2.41-2.29V21.5a2.4,2.4,0,0,0-4.8-.14.33.33,0,0,0,0,.14,2.35,2.35,0,0,0,2.28,2.42h.12m0-6.27a3.86,3.86,0,1,1-3.93,3.86,3.82,3.82,0,0,1,3.93-3.86"/><path class="cls-1" d="M40.29,25V17.82a.17.17,0,0,1,.17-.17h1.19a.18.18,0,0,1,.17.17V25a.18.18,0,0,1-.17.17H40.46a.17.17,0,0,1-.17-.17"/><path class="cls-1" d="M35.83,17.65A3,3,0,0,0,33.19,19a2.8,2.8,0,0,0-2.64-1.38,2.56,2.56,0,0,0-2.23,1.09V17.57a.17.17,0,0,0-.17-.17l-.08,0-1.24.72a.07.07,0,0,0,0,.07V25a.17.17,0,0,0,.16.17h1.19a.18.18,0,0,0,.17-.17h0V21a1.88,1.88,0,0,1,2-1.93c1.1,0,1.74.71,1.74,1.93v4a.18.18,0,0,0,.17.17h1.2a.18.18,0,0,0,.17-.17h0v-4.1a1.88,1.88,0,0,1,2-1.83A1.7,1.7,0,0,1,37.34,21v4a.17.17,0,0,0,.16.17h1.2a.17.17,0,0,0,.17-.17V20.71a2.82,2.82,0,0,0-3-3.06"/><path class="cls-1" d="M4.25,23.9a2.35,2.35,0,0,1-2.4-2.3v-.1a2.36,2.36,0,0,1,2.29-2.42h.11a2.36,2.36,0,0,1,2.41,2.3v.12a2.36,2.36,0,0,1-2.29,2.42H4.25m0-6.27a4,4,0,0,0-2.71,1V13.58a.17.17,0,0,0-.17-.16l-.08,0L0,14.15a.12.12,0,0,0,0,.08V25a.18.18,0,0,0,.17.17H1.36A.18.18,0,0,0,1.53,25v-.72a3.91,3.91,0,0,0,2.72,1,3.86,3.86,0,1,0,0-7.72"/></svg>