<?xml version="1.0" encoding="utf-8"?>
<!-- Generator: Adobe Illustrator 24.0.3, SVG Export Plug-In . SVG Version: 6.00 Build 0)  -->
<svg version="1.1" id="Layer_1" xmlns="http://www.w3.org/2000/svg" xmlns:xlink="http://www.w3.org/1999/xlink" x="0px" y="0px"
	 viewBox="0 0 716.1 452.1" style="enable-background:new 0 0 716.1 452.1;" xml:space="preserve">
<style type="text/css">
	.st0{fill-rule:evenodd;clip-rule:evenodd;fill:#0074BD;}
	.st1{fill-rule:evenodd;clip-rule:evenodd;fill:#EA2D2E;}
</style>
<g>
	<path class="st0" d="M117.2,349.6c0,0-17.3,10,12.3,13.4c35.8,4.1,54.1,3.5,93.6-4c0,0,10.4,6.5,24.9,12.1
		C159.4,409.1,47.6,369,117.2,349.6L117.2,349.6z"/>
	<path class="st0" d="M106.3,300.1c0,0-19.4,14.3,10.2,17.4c38.3,4,68.5,4.3,120.8-5.8c0,0,7.2,7.3,18.6,11.3
		C148.9,354.3,29.8,325.5,106.3,300.1L106.3,300.1z"/>
	<path class="st1" d="M197.5,216.1c21.8,25.1-5.7,47.7-5.7,47.7s55.4-28.6,29.9-64.4c-23.8-33.4-42-50,56.6-107.1
		C278.3,92.3,123.6,131,197.5,216.1L197.5,216.1z"/>
	<path class="st0" d="M314.5,386.2c0,0,12.8,10.5-14.1,18.7C249.4,420.4,87.9,425,43,405.5c-16.1-7,14.1-16.8,23.6-18.8
		c9.9-2.1,15.6-1.8,15.6-1.8c-17.9-12.6-115.9,24.8-49.8,35.5C212.9,449.7,361.3,407.3,314.5,386.2L314.5,386.2z"/>
	<path class="st0" d="M125.5,248.8c0,0-82.2,19.5-29.1,26.6c22.4,3,67.1,2.3,108.7-1.2c34-2.9,68.1-9,68.1-9s-12,5.1-20.7,11.1
		c-83.4,21.9-244.6,11.7-198.2-10.7C93.5,246.7,125.5,248.8,125.5,248.8L125.5,248.8z"/>
	<path class="st0" d="M272.8,331.2c84.8-44.1,45.6-86.4,18.2-80.7c-6.7,1.4-9.7,2.6-9.7,2.6s2.5-3.9,7.2-5.6
		c54.2-19,95.8,56.1-17.5,85.9C271.1,333.4,272.5,332.2,272.8,331.2L272.8,331.2z"/>
	<path class="st1" d="M221.7,0c0,0,47,47-44.6,119.2c-73.4,58-16.7,91,0,128.8c-42.8-38.7-74.3-72.7-53.2-104.4
		C154.9,97.2,240.7,74.6,221.7,0L221.7,0z"/>
	<path class="st0" d="M133.8,450.6c81.4,5.2,206.4-2.9,209.4-41.4c0,0-5.7,14.6-67.3,26.2c-69.5,13.1-155.2,11.6-206,3.2
		C69.9,438.6,80.3,447.2,133.8,450.6L133.8,450.6z"/>
	<path class="st1" d="M701.1,225.1h-2.5v-1.4h6.7v1.4h-2.5v6.9h-1.7L701.1,225.1L701.1,225.1L701.1,225.1z M714.5,225.5L714.5,225.5
		L712,232h-1.1l-2.4-6.6h0v6.6h-1.6v-8.3h2.4l2.3,5.9l2.3-5.9h2.4v8.3h-1.6L714.5,225.5L714.5,225.5z"/>
	<path class="st1" d="M482.2,303.2c-7.7,6.7-15.8,10.4-23.1,10.4c-10.4,0-16-6.2-16-16.2c0-10.8,6-18.7,30.2-18.7h8.9V303.2
		L482.2,303.2L482.2,303.2z M503.4,327.1v-74c0-18.9-10.8-31.4-36.8-31.4c-15.2,0-28.5,3.8-39.3,8.5l3.1,13.1c8.5-3.1,19.5-6,30.3-6
		c15,0,21.4,6,21.4,18.5v9.4h-7.5c-36.4,0-52.8,14.1-52.8,35.3c0,18.3,10.8,28.7,31.2,28.7c13.1,0,22.9-5.4,32-13.3l1.7,11.2
		L503.4,327.1L503.4,327.1z"/>
	<path class="st1" d="M574.1,327.1h-26.4l-31.8-103.5h23.1l19.7,63.6l4.4,19.1c10-27.6,17-55.7,20.6-82.7h22.4
		C600.1,257.7,589.2,295.1,574.1,327.1L574.1,327.1z"/>
	<path class="st1" d="M675.5,303.2c-7.7,6.7-15.8,10.4-23.1,10.4c-10.4,0-16-6.2-16-16.2c0-10.8,6-18.7,30.2-18.7h8.9L675.5,303.2
		L675.5,303.2L675.5,303.2z M696.7,327.1v-74c0-18.9-10.8-31.4-36.8-31.4c-15.2,0-28.5,3.8-39.3,8.5l3.1,13.1c8.5-3.1,19.5-6,30.4-6
		c15,0,21.4,6,21.4,18.5v9.4H668c-36.4,0-52.8,14.1-52.8,35.3c0,18.3,10.8,28.7,31.2,28.7c13.1,0,22.9-5.4,32-13.3l1.7,11.2
		L696.7,327.1L696.7,327.1z"/>
	<path class="st1" d="M398.7,344.7c-6,8.8-15.8,15.8-26.5,19.7l-10.5-12.3c8.1-4.2,15.1-10.9,18.3-17.2c2.8-5.6,4-12.8,4-30V186.8
		h22.5v116.6C406.5,326.3,404.7,335.6,398.7,344.7L398.7,344.7z"/>
</g>
</svg>
