<svg id="Layer_1" data-name="Layer 1" xmlns="http://www.w3.org/2000/svg" viewBox="0 0 42 42"><title>kafka</title><path d="M3.88,13.37a1.11,1.11,0,0,0-1.58,0h0A1.17,1.17,0,0,0,2.3,15h0a1.07,1.07,0,0,0,.79.33A1.07,1.07,0,0,0,3.88,15h0A1.17,1.17,0,0,0,3.88,13.37ZM3.09,29a1.11,1.11,0,0,0,.79-.33h0a1.14,1.14,0,0,0,.33-.8A1.18,1.18,0,0,0,3.88,27h0A1.11,1.11,0,0,0,2.3,27h0a1.18,1.18,0,0,0-.33.81,1.14,1.14,0,0,0,.33.8h0A1.11,1.11,0,0,0,3.09,29Zm6.09-3.45A1.15,1.15,0,0,0,9.87,25l0,0a1.15,1.15,0,0,0-.44-1.51v0a1.14,1.14,0,0,0-1.52.43,1.15,1.15,0,0,0,.41,1.56h0a1.1,1.1,0,0,0,.85.11ZM4.24,19.84A1.6,1.6,0,0,0,2,19.8l0,0a1.68,1.68,0,0,0,0,2.33,1.61,1.61,0,0,0,2.27,0l0,0a1.68,1.68,0,0,0,0-2.33Zm-.65-1.95a3,3,0,0,1,1.68.89h0a2.2,2.2,0,0,1,.2.23l1.12-.66a2.56,2.56,0,0,1,0-1.4,2.44,2.44,0,0,1,1.12-1.49h0a2.36,2.36,0,0,1,1.82-.23A2.39,2.39,0,0,1,11,16.36h0a2.47,2.47,0,0,1,.24,1.86,2.38,2.38,0,0,1-1.12,1.49l-.15.1h0a2.4,2.4,0,0,1-2.84-.58L6,19.89A3,3,0,0,1,6.18,21,3.08,3.08,0,0,1,6,22.12l1.12.66a2.33,2.33,0,0,1,1.17-.73,2.3,2.3,0,0,1,1.83.24l0,0h0a2.45,2.45,0,0,1,1.09,1.47A2.51,2.51,0,0,1,11,25.64l0,.05h0a2.5,2.5,0,0,1-1.45,1.1,2.47,2.47,0,0,1-1.84-.25h0a2.49,2.49,0,0,1-1.09-2.89L5.47,23c-.06.08-.14.15-.2.23h0a3.09,3.09,0,0,1-1.68.88v1.31a2.32,2.32,0,0,1,1.2.67h0a2.46,2.46,0,0,1,0,3.46h0a2.38,2.38,0,0,1-3.36.05l-.05-.05h0a2.48,2.48,0,0,1,0-3.46h0a2.39,2.39,0,0,1,1.21-.67V24.11a3,3,0,0,1-1.68-.89h0a3.17,3.17,0,0,1,0-4.44h0a3,3,0,0,1,1.68-.88V16.59a2.54,2.54,0,0,1-1.21-.67h0a2.49,2.49,0,0,1,0-3.47h0a2.39,2.39,0,0,1,3.37,0l0,0h0a2.47,2.47,0,0,1,0,3.47h0a2.47,2.47,0,0,1-1.2.67ZM9.87,17h0a1.12,1.12,0,0,0-1.53-.41h0a1.16,1.16,0,0,0-.41,1.56h0a1.12,1.12,0,0,0,1.53.41h0a1.19,1.19,0,0,0,.51-.69A1.17,1.17,0,0,0,9.86,17"/><path d="M14.83,17.11h1.35V21.3l1.94-2.19h1.62l-2.35,2.54,2.36,3.21H18.2l-2-2.87v2.87H14.83Z"/><path d="M21.3,22A1.71,1.71,0,0,0,23,23.76a1.6,1.6,0,0,0,1.5-.92,2.08,2.08,0,0,0,.22-.81,1.85,1.85,0,0,0-.16-.8,1.65,1.65,0,0,0-1.57-1A1.72,1.72,0,0,0,21.3,22Zm4.77,2.85H24.72V24a2.09,2.09,0,0,1-1.9,1A2.87,2.87,0,0,1,20,22a2.89,2.89,0,0,1,2.87-3.05,2.09,2.09,0,0,1,1.9,1v-.84h1.35Z"/><path d="M27.6,20.17h-.7V19.11h.7v-.32c0-1.71,1.27-1.81,2.24-1.82V18c-.34,0-.9,0-.9.81v.28h.9v1.06h-.9v4.69H27.59Z"/><path d="M30.76,17.11H32.1V21.3l1.95-2.19h1.61l-2.34,2.54,2.35,3.21H34.13L32.1,22v2.87H30.76Z"/><path d="M37.23,22A1.71,1.71,0,0,0,39,23.76a1.6,1.6,0,0,0,1.5-.92,1.91,1.91,0,0,0,.21-.81,1.84,1.84,0,0,0-.15-.8,1.65,1.65,0,0,0-1.58-1A1.72,1.72,0,0,0,37.23,22ZM42,24.86H40.65V24a2.09,2.09,0,0,1-1.9,1A2.87,2.87,0,0,1,35.88,22a2.89,2.89,0,0,1,2.87-3.05,2.09,2.09,0,0,1,1.9,1v-.84H42Z"/></svg>