<svg id="Layer_1" data-name="Layer 1" xmlns="http://www.w3.org/2000/svg" xmlns:xlink="http://www.w3.org/1999/xlink" viewBox="0 0 42 42"><defs><style>.cls-1{fill:none;}.cls-2{clip-path:url(#clip-path);}.cls-3{clip-path:url(#clip-path-2);}.cls-4{fill:#fff;}.cls-5{clip-path:url(#clip-path-3);}.cls-6{clip-path:url(#clip-path-4);}.cls-7{fill:#8d89c2;}.cls-8{fill:#8e8ac2;}.cls-9{fill:#8f8bc3;}.cls-10{fill:#908cc3;}.cls-11{fill:#918dc4;}.cls-12{fill:#928ec4;}.cls-13{fill:#938fc5;}.cls-14{fill:#9490c5;}.cls-15{fill:#9591c6;}.cls-16{fill:#9692c6;}.cls-17{fill:#9793c7;}.cls-18{fill:#9894c7;}.cls-19{fill:#9995c8;}.cls-20{fill:#9a96c8;}.cls-21{fill:#9b97c9;}.cls-22{fill:#9c98c9;}.cls-23{fill:#9d99ca;}.cls-24{fill:#9e9aca;}.cls-25{fill:#9f9bca;}.cls-26{fill:#a09ccb;}.cls-27{fill:#a09dcb;}.cls-28{fill:#a19ecc;}.cls-29{fill:#a29fcc;}.cls-30{fill:#a3a0cd;}.cls-31{fill:#a4a1cd;}.cls-32{fill:#a5a2ce;}.cls-33{fill:#a6a3ce;}.cls-34{fill:#a7a4cf;}.cls-35{fill:#a8a5cf;}.cls-36{fill:#a9a6d0;}.cls-37{fill:#aaa7d0;}.cls-38{fill:#aba8d1;}.cls-39{fill:#aca9d1;}.cls-40{fill:#adaad2;}.cls-41{fill:#aeabd2;}.cls-42{fill:#afacd2;}.cls-43{fill:#b0add3;}.cls-44{fill:#b1aed3;}.cls-45{fill:#b2afd4;}.cls-46{fill:#b3b0d4;}.cls-47{fill:#b4b1d5;}.cls-48{fill:#b5b2d5;}.cls-49{fill:#b6b3d6;}.cls-50{fill:#b7b4d6;}.cls-51{fill:#b8b5d7;}.cls-52{fill:#b9b6d7;}.cls-53{fill:#bab7d8;}.cls-54{fill:#bbb8d8;}.cls-55{fill:#bcb9d9;}.cls-56{fill:#bdbad9;}.cls-57{fill:#bebbda;}.cls-58{fill:#bfbcda;}.cls-59{fill:#c0bdda;}.cls-60{fill:#c1bedb;}.cls-61{fill:#c2bfdb;}.cls-62{fill:#c3c0dc;}.cls-63{fill:#c4c1dc;}.cls-64{fill:#c5c2dd;}.cls-65{fill:#c6c3dd;}.cls-66{fill:#c6c5de;}.cls-67{fill:#c7c6de;}.cls-68{fill:#c8c7df;}.cls-69{fill:#c9c8df;}.cls-70{fill:#cac9e0;}.cls-71{fill:#cbcae0;}.cls-72{fill:#cccbe1;}.cls-73{fill:#cdcce1;}.cls-74{fill:#cecde1;}.cls-75{fill:#cfcee2;}.cls-76{fill:#d0cfe2;}.cls-77{fill:#d1d0e3;}.cls-78{fill:#d2d1e3;}.cls-79{fill:#d3d2e4;}.cls-80{fill:#d4d3e4;}.cls-81{fill:#d5d4e5;}.cls-82{fill:#d6d5e5;}.cls-83{fill:#d7d6e6;}.cls-84{fill:#d8d7e6;}.cls-85{fill:#d9d8e7;}.cls-86{fill:#dad9e7;}.cls-87{fill:#dbdae8;}.cls-88{fill:#dcdbe8;}.cls-89{fill:#dddce9;}.cls-90{fill:#dedde9;}.cls-91{fill:#dfdee9;}.cls-92{fill:#e0dfea;}.cls-93{fill:#e1e0ea;}.cls-94{fill:#e2e1eb;}.cls-95{fill:#e3e2eb;}.cls-96{fill:#e4e3ec;}.cls-97{fill:#e5e4ec;}.cls-98{fill:#e6e5ed;}.cls-99{fill:#e7e6ed;}.cls-100{fill:#e8e7ee;}.cls-101{fill:#e9e8ee;}.cls-102{fill:#eae9ef;}.cls-103{fill:#ebeaef;}.cls-104{fill:#ecebf0;}.cls-105{fill:#ececf0;}.cls-106{clip-path:url(#clip-path-5);}.cls-107{clip-path:url(#clip-path-6);}.cls-108{fill:#ededf1;}.cls-109{fill:#eeeef1;}.cls-110{fill:#efeff1;}.cls-111{fill:#f0f0f2;}.cls-112{fill:#f1f1f2;}.cls-113{fill:#f2f2f3;}.cls-114{fill:#f3f3f3;}.cls-115{fill:#f4f4f4;}.cls-116{fill:#f5f5f4;}.cls-117{fill:#f6f6f5;}.cls-118{fill:#f7f7f5;}.cls-119{fill:#f8f8f6;}.cls-120{fill:#f9f9f6;}.cls-121{fill:#fafaf7;}.cls-122{fill:#fbfbf7;}.cls-123{fill:#fcfcf8;}.cls-124{fill:#fdfdf8;}.cls-125{fill:#fefef9;}.cls-126{fill:#fffff9;}.cls-127{fill:#807ead;}.cls-128{clip-path:url(#clip-path-7);}.cls-129{clip-path:url(#clip-path-8);}.cls-130{clip-path:url(#clip-path-9);}.cls-131{clip-path:url(#clip-path-10);}.cls-132{clip-path:url(#clip-path-11);}.cls-133{clip-path:url(#clip-path-12);}.cls-134{fill:#6f1171;}.cls-135{fill:#701272;}.cls-136{fill:#701372;}.cls-137{fill:#711473;}.cls-138{fill:#711573;}.cls-139{fill:#721674;}.cls-140{fill:#721775;}.cls-141{fill:#731875;}.cls-142{fill:#731976;}.cls-143{fill:#741a76;}.cls-144{fill:#751b77;}.cls-145{fill:#751c78;}.cls-146{fill:#761d78;}.cls-147{fill:#761e79;}.cls-148{fill:#771f79;}.cls-149{fill:#77207a;}.cls-150{fill:#78217b;}.cls-151{fill:#78227b;}.cls-152{fill:#79237c;}.cls-153{fill:#79247c;}.cls-154{fill:#7a257d;}.cls-155{fill:#7b267e;}.cls-156{fill:#7b277e;}.cls-157{fill:#7c287f;}.cls-158{fill:#7c297f;}.cls-159{fill:#7d2a80;}.cls-160{fill:#7d2b81;}.cls-161{fill:#7e2c81;}.cls-162{fill:#7e2d82;}.cls-163{fill:#7f2e82;}.cls-164{fill:#802f83;}.cls-165{fill:#803084;}.cls-166{fill:#813184;}.cls-167{fill:#813285;}.cls-168{fill:#823385;}.cls-169{fill:#823486;}.cls-170{fill:#833587;}.cls-171{fill:#833687;}.cls-172{fill:#843788;}.cls-173{fill:#853888;}.cls-174{fill:#853989;}.cls-175{fill:#863a8a;}.cls-176{fill:#863b8a;}.cls-177{fill:#873c8b;}.cls-178{fill:#873d8b;}.cls-179{fill:#883e8c;}.cls-180{fill:#883f8d;}.cls-181{fill:#89408d;}.cls-182{fill:#8a418e;}.cls-183{fill:#8a428e;}.cls-184{fill:#8b438f;}.cls-185{fill:#8b4490;}.cls-186{fill:#8c4590;}.cls-187{fill:#8c4691;}.cls-188{fill:#8d4791;}.cls-189{fill:#8d4892;}.cls-190{fill:#8e4993;}.cls-191{fill:#8e4a93;}.cls-192{fill:#8f4b94;}.cls-193{fill:#904c94;}.cls-194{fill:#904d95;}.cls-195{fill:#914e96;}.cls-196{fill:#914f96;}.cls-197{fill:#925097;}.cls-198{fill:#925197;}.cls-199{fill:#935298;}.cls-200{fill:#935399;}.cls-201{fill:#945499;}.cls-202{fill:#95559a;}.cls-203{fill:#95569a;}.cls-204{fill:#96579b;}.cls-205{fill:#96589c;}.cls-206{fill:#975a9c;}.cls-207{fill:#975b9d;}.cls-208{fill:#985c9e;}.cls-209{fill:#985d9e;}.cls-210{fill:#995e9f;}.cls-211{fill:#9a5f9f;}.cls-212{fill:#9a60a0;}.cls-213{fill:#9b61a1;}.cls-214{fill:#9b62a1;}.cls-215{fill:#9c63a2;}.cls-216{fill:#9c64a2;}.cls-217{fill:#9d65a3;}.cls-218{fill:#9d66a4;}.cls-219{fill:#9e67a4;}.cls-220{fill:#9f68a5;}.cls-221{fill:#9f69a5;}.cls-222{fill:#a06aa6;}.cls-223{fill:#a06ba7;}.cls-224{fill:#a16ca7;}.cls-225{fill:#a16da8;}.cls-226{fill:#a26ea8;}.cls-227{fill:#a26fa9;}.cls-228{fill:#a370aa;}.cls-229{fill:#a371aa;}.cls-230{fill:#a472ab;}.cls-231{fill:#a573ab;}.cls-232{fill:#a574ac;}.cls-233{fill:#a675ad;}.cls-234{fill:#a676ad;}.cls-235{fill:#a777ae;}.cls-236{fill:#a778ae;}.cls-237{fill:#a879af;}.cls-238{fill:#a87ab0;}.cls-239{fill:#a97bb0;}.cls-240{fill:#aa7cb1;}.cls-241{fill:#aa7db1;}.cls-242{fill:#ab7eb2;}.cls-243{fill:#ab7fb3;}.cls-244{fill:#ac80b3;}.cls-245{fill:#ac81b4;}.cls-246{fill:#ad82b4;}.cls-247{fill:#ad83b5;}.cls-248{fill:#ae84b6;}.cls-249{fill:#af85b6;}.cls-250{fill:#af86b7;}.cls-251{fill:#b087b7;}.cls-252{fill:#b088b8;}.cls-253{fill:#b189b9;}.cls-254{fill:#b18ab9;}.cls-255{fill:#b28bba;}.cls-256{fill:#b28cba;}.cls-257{fill:#b38dbb;}.cls-258{fill:#b48ebc;}.cls-259{fill:#b48fbc;}.cls-260{fill:#b590bd;}.cls-261{fill:#b591bd;}.cls-262{fill:#b692be;}.cls-263{fill:#b693bf;}.cls-264{fill:#b794bf;}.cls-265{fill:#b795c0;}.cls-266{fill:#b896c0;}.cls-267{fill:#b897c1;}.cls-268{fill:#b998c2;}.cls-269{fill:#ba99c2;}.cls-270{fill:#ba9ac3;}.cls-271{fill:#bb9bc3;}.cls-272{fill:#bb9cc4;}.cls-273{fill:#bc9dc5;}.cls-274{fill:#bc9ec5;}.cls-275{fill:#bd9fc6;}.cls-276{fill:#bda0c6;}.cls-277{fill:#bea1c7;}.cls-278{fill:#e3d7eb;}.cls-279{fill:#842099;}</style><clipPath id="clip-path"><path class="cls-1" d="M1.61,16.3H8.92a1.24,1.24,0,0,1,1.2,1.26v7a1.24,1.24,0,0,1-1.2,1.26H1.61a1.23,1.23,0,0,1-1.2-1.26v-7A1.23,1.23,0,0,1,1.61,16.3Z"/></clipPath><clipPath id="clip-path-2"><rect class="cls-1" x="0.31" y="16.32" width="9.03" height="9.56"/></clipPath><clipPath id="clip-path-3"><path class="cls-1" d="M1.66,16.3h7.2a1.25,1.25,0,0,1,1.24,1.26v7a1.25,1.25,0,0,1-1.24,1.26H1.66A1.25,1.25,0,0,1,.41,24.57v-7A1.25,1.25,0,0,1,1.66,16.3Z"/></clipPath><clipPath id="clip-path-4"><rect class="cls-1" x="-0.3" y="16.35" width="10.27" height="10.4"/></clipPath><clipPath id="clip-path-5"><path class="cls-1" d="M1.66,16.3H8.84a1.26,1.26,0,0,1,1.26,1.26v7a1.26,1.26,0,0,1-1.26,1.26H1.66A1.27,1.27,0,0,1,.39,24.57v-7A1.3,1.3,0,0,1,1.66,16.3Z"/></clipPath><clipPath id="clip-path-6"><path class="cls-1" d="M.15,13.66A12.58,12.58,0,0,1,12.68,26.2l-12.53,0Z"/></clipPath><clipPath id="clip-path-7"><path class="cls-1" d="M1.61,16.3h7.3a1.23,1.23,0,0,1,1.19,1.26v7a1.23,1.23,0,0,1-1.19,1.26H1.61a1.23,1.23,0,0,1-1.2-1.26v-7A1.23,1.23,0,0,1,1.61,16.3Z"/></clipPath><clipPath id="clip-path-8"><path class="cls-1" d="M.22,15.88A10.43,10.43,0,0,1,10.36,26.56l-10.14,0Z"/></clipPath><clipPath id="clip-path-9"><path class="cls-1" d="M1.62,16.3H8.89a1.24,1.24,0,0,1,1.21,1.26v7a1.24,1.24,0,0,1-1.21,1.26H1.62A1.24,1.24,0,0,1,.41,24.57v-7A1.23,1.23,0,0,1,1.62,16.3Z"/></clipPath><clipPath id="clip-path-10"><path class="cls-1" d="M.14,18.32A7.59,7.59,0,0,1,7.58,26L.14,26Z"/></clipPath><clipPath id="clip-path-11"><path class="cls-1" d="M1.64,16.3H8.86a1.25,1.25,0,0,1,1.23,1.26v7a1.25,1.25,0,0,1-1.23,1.26H1.64A1.25,1.25,0,0,1,.41,24.57v-7A1.25,1.25,0,0,1,1.64,16.3Z"/></clipPath><clipPath id="clip-path-12"><path class="cls-1" d="M0,20.49A5.61,5.61,0,0,1,5.6,26.15L0,26.17Z"/></clipPath></defs><title>MQTT</title><g id="g6666"><g class="cls-2"><g id="rect5036"><g class="cls-3"><polygon class="cls-4" points="4.15 16.32 9.34 21.66 9.34 25.88 0.31 25.88 0.31 16.32 4.15 16.32"/><polygon class="cls-4" points="9.34 21.66 4.15 16.32 9.34 16.32 9.34 21.66"/></g></g></g><g class="cls-5"><g id="rect6113"><g class="cls-6"><polygon class="cls-7" points="-0.3 18.89 6.22 26.75 -0.3 26.75 -0.3 18.89"/><polygon class="cls-7" points="-0.3 18.74 6.35 26.75 6.22 26.75 -0.3 18.89 -0.3 18.74"/><polygon class="cls-8" points="-0.3 18.59 6.47 26.75 6.35 26.75 -0.3 18.74 -0.3 18.59"/><polygon class="cls-9" points="-0.3 18.44 6.6 26.75 6.47 26.75 -0.3 18.59 -0.3 18.44"/><polygon class="cls-10" points="-0.3 18.29 6.72 26.75 6.6 26.75 -0.3 18.44 -0.3 18.29"/><polygon class="cls-11" points="-0.3 18.14 6.85 26.75 6.72 26.75 -0.3 18.29 -0.3 18.14"/><polygon class="cls-12" points="-0.3 17.99 6.97 26.75 6.85 26.75 -0.3 18.14 -0.3 17.99"/><polygon class="cls-13" points="-0.3 17.84 7.1 26.75 6.97 26.75 -0.3 17.99 -0.3 17.84"/><polygon class="cls-14" points="-0.3 17.68 7.22 26.75 7.1 26.75 -0.3 17.84 -0.3 17.68"/><polygon class="cls-15" points="-0.3 17.53 7.35 26.75 7.22 26.75 -0.3 17.68 -0.3 17.53"/><polygon class="cls-16" points="-0.3 17.38 7.48 26.75 7.35 26.75 -0.3 17.53 -0.3 17.38"/><polygon class="cls-17" points="-0.3 17.23 7.6 26.75 7.48 26.75 -0.3 17.38 -0.3 17.23"/><polygon class="cls-18" points="-0.3 17.08 7.73 26.75 7.6 26.75 -0.3 17.23 -0.3 17.08"/><polygon class="cls-19" points="-0.3 16.93 7.85 26.75 7.73 26.75 -0.3 17.08 -0.3 16.93"/><polygon class="cls-20" points="-0.3 16.78 7.98 26.75 7.85 26.75 -0.3 16.93 -0.3 16.78"/><polygon class="cls-21" points="-0.3 16.63 8.1 26.75 7.98 26.75 -0.3 16.78 -0.3 16.63"/><polygon class="cls-22" points="-0.3 16.47 8.23 26.75 8.1 26.75 -0.3 16.63 -0.3 16.47"/><polygon class="cls-23" points="-0.28 16.35 8.36 26.75 8.23 26.75 -0.3 16.47 -0.3 16.35 -0.28 16.35"/><polygon class="cls-24" points="-0.15 16.35 8.48 26.75 8.36 26.75 -0.28 16.35 -0.15 16.35"/><polygon class="cls-25" points="-0.03 16.35 8.61 26.75 8.48 26.75 -0.15 16.35 -0.03 16.35"/><polygon class="cls-26" points="0.1 16.35 8.73 26.75 8.61 26.75 -0.03 16.35 0.1 16.35"/><polygon class="cls-27" points="0.22 16.35 8.86 26.75 8.73 26.75 0.1 16.35 0.22 16.35"/><polygon class="cls-28" points="0.35 16.35 8.98 26.75 8.86 26.75 0.22 16.35 0.35 16.35"/><polygon class="cls-29" points="0.47 16.35 9.11 26.75 8.98 26.75 0.35 16.35 0.47 16.35"/><polygon class="cls-30" points="0.6 16.35 9.23 26.75 9.11 26.75 0.47 16.35 0.6 16.35"/><polygon class="cls-31" points="0.72 16.35 9.36 26.75 9.23 26.75 0.6 16.35 0.72 16.35"/><polygon class="cls-32" points="0.85 16.35 9.49 26.75 9.36 26.75 0.72 16.35 0.85 16.35"/><polygon class="cls-33" points="0.98 16.35 9.61 26.75 9.49 26.75 0.85 16.35 0.98 16.35"/><polygon class="cls-34" points="1.1 16.35 9.74 26.75 9.61 26.75 0.98 16.35 1.1 16.35"/><polygon class="cls-35" points="1.23 16.35 9.86 26.75 9.74 26.75 1.1 16.35 1.23 16.35"/><polygon class="cls-36" points="1.35 16.35 9.97 26.73 9.97 26.75 9.86 26.75 1.23 16.35 1.35 16.35"/><polygon class="cls-37" points="1.48 16.35 9.97 26.58 9.97 26.73 1.35 16.35 1.48 16.35"/><polygon class="cls-38" points="1.6 16.35 9.97 26.43 9.97 26.58 1.48 16.35 1.6 16.35"/><polygon class="cls-39" points="1.73 16.35 9.97 26.28 9.97 26.43 1.6 16.35 1.73 16.35"/><polygon class="cls-40" points="1.86 16.35 9.97 26.13 9.97 26.28 1.73 16.35 1.86 16.35"/><polygon class="cls-41" points="1.98 16.35 9.97 25.98 9.97 26.13 1.86 16.35 1.98 16.35"/><polygon class="cls-42" points="2.11 16.35 9.97 25.82 9.97 25.98 1.98 16.35 2.11 16.35"/><polygon class="cls-43" points="2.23 16.35 9.97 25.67 9.97 25.82 2.11 16.35 2.23 16.35"/><polygon class="cls-44" points="2.36 16.35 9.97 25.52 9.97 25.67 2.23 16.35 2.36 16.35"/><polygon class="cls-45" points="2.48 16.35 9.97 25.37 9.97 25.52 2.36 16.35 2.48 16.35"/><polygon class="cls-46" points="2.61 16.35 9.97 25.22 9.97 25.37 2.48 16.35 2.61 16.35"/><polygon class="cls-47" points="2.73 16.35 9.97 25.07 9.97 25.22 2.61 16.35 2.73 16.35"/><polygon class="cls-48" points="2.86 16.35 9.97 24.92 9.97 25.07 2.73 16.35 2.86 16.35"/><polygon class="cls-49" points="2.99 16.35 9.97 24.77 9.97 24.92 2.86 16.35 2.99 16.35"/><polygon class="cls-50" points="3.11 16.35 9.97 24.61 9.97 24.77 2.99 16.35 3.11 16.35"/><polygon class="cls-51" points="3.24 16.35 9.97 24.46 9.97 24.61 3.11 16.35 3.24 16.35"/><polygon class="cls-52" points="3.36 16.35 9.97 24.31 9.97 24.46 3.24 16.35 3.36 16.35"/><polygon class="cls-53" points="3.49 16.35 9.97 24.16 9.97 24.31 3.36 16.35 3.49 16.35"/><polygon class="cls-54" points="3.62 16.35 9.97 24.01 9.97 24.16 3.49 16.35 3.62 16.35"/><polygon class="cls-55" points="3.74 16.35 9.97 23.86 9.97 24.01 3.62 16.35 3.74 16.35"/><polygon class="cls-56" points="3.87 16.35 9.97 23.71 9.97 23.86 3.74 16.35 3.87 16.35"/><polygon class="cls-57" points="3.99 16.35 9.97 23.55 9.97 23.71 3.87 16.35 3.99 16.35"/><polygon class="cls-58" points="4.12 16.35 9.97 23.4 9.97 23.55 3.99 16.35 4.12 16.35"/><polygon class="cls-59" points="4.24 16.35 9.97 23.25 9.97 23.4 4.12 16.35 4.24 16.35"/><polygon class="cls-60" points="4.37 16.35 9.97 23.1 9.97 23.25 4.24 16.35 4.37 16.35"/><polygon class="cls-61" points="4.49 16.35 9.97 22.95 9.97 23.1 4.37 16.35 4.49 16.35"/><polygon class="cls-62" points="4.62 16.35 9.97 22.8 9.97 22.95 4.49 16.35 4.62 16.35"/><polygon class="cls-63" points="4.75 16.35 9.97 22.65 9.97 22.8 4.62 16.35 4.75 16.35"/><polygon class="cls-64" points="4.87 16.35 9.97 22.5 9.97 22.65 4.75 16.35 4.87 16.35"/><polygon class="cls-65" points="5 16.35 9.97 22.34 9.97 22.5 4.87 16.35 5 16.35"/><polygon class="cls-66" points="5.12 16.35 9.97 22.19 9.97 22.34 5 16.35 5.12 16.35"/><polygon class="cls-67" points="5.25 16.35 9.97 22.04 9.97 22.19 5.12 16.35 5.25 16.35"/><polygon class="cls-68" points="5.37 16.35 9.97 21.89 9.97 22.04 5.25 16.35 5.37 16.35"/><polygon class="cls-69" points="5.5 16.35 9.97 21.74 9.97 21.89 5.37 16.35 5.5 16.35"/><polygon class="cls-70" points="5.62 16.35 9.97 21.59 9.97 21.74 5.5 16.35 5.62 16.35"/><polygon class="cls-71" points="5.75 16.35 9.97 21.44 9.97 21.59 5.62 16.35 5.75 16.35"/><polygon class="cls-72" points="5.88 16.35 9.97 21.29 9.97 21.44 5.75 16.35 5.88 16.35"/><polygon class="cls-73" points="6 16.35 9.97 21.13 9.97 21.29 5.88 16.35 6 16.35"/><polygon class="cls-74" points="6.13 16.35 9.97 20.98 9.97 21.13 6 16.35 6.13 16.35"/><polygon class="cls-75" points="6.25 16.35 9.97 20.83 9.97 20.98 6.13 16.35 6.25 16.35"/><polygon class="cls-76" points="6.38 16.35 9.97 20.68 9.97 20.83 6.25 16.35 6.38 16.35"/><polygon class="cls-77" points="6.5 16.35 9.97 20.53 9.97 20.68 6.38 16.35 6.5 16.35"/><polygon class="cls-78" points="6.63 16.35 9.97 20.38 9.97 20.53 6.5 16.35 6.63 16.35"/><polygon class="cls-79" points="6.75 16.35 9.97 20.23 9.97 20.38 6.63 16.35 6.75 16.35"/><polygon class="cls-80" points="6.88 16.35 9.97 20.07 9.97 20.23 6.75 16.35 6.88 16.35"/><polygon class="cls-81" points="7.01 16.35 9.97 19.92 9.97 20.07 6.88 16.35 7.01 16.35"/><polygon class="cls-82" points="7.13 16.35 9.97 19.77 9.97 19.92 7.01 16.35 7.13 16.35"/><polygon class="cls-83" points="7.26 16.35 9.97 19.62 9.97 19.77 7.13 16.35 7.26 16.35"/><polygon class="cls-84" points="7.38 16.35 9.97 19.47 9.97 19.62 7.26 16.35 7.38 16.35"/><polygon class="cls-85" points="7.51 16.35 9.97 19.32 9.97 19.47 7.38 16.35 7.51 16.35"/><polygon class="cls-86" points="7.63 16.35 9.97 19.17 9.97 19.32 7.51 16.35 7.63 16.35"/><polygon class="cls-87" points="7.76 16.35 9.97 19.02 9.97 19.17 7.63 16.35 7.76 16.35"/><polygon class="cls-88" points="7.88 16.35 9.97 18.86 9.97 19.02 7.76 16.35 7.88 16.35"/><polygon class="cls-89" points="8.01 16.35 9.97 18.71 9.97 18.86 7.88 16.35 8.01 16.35"/><polygon class="cls-90" points="8.14 16.35 9.97 18.56 9.97 18.71 8.01 16.35 8.14 16.35"/><polygon class="cls-91" points="8.26 16.35 9.97 18.41 9.97 18.56 8.14 16.35 8.26 16.35"/><polygon class="cls-92" points="8.39 16.35 9.97 18.26 9.97 18.41 8.26 16.35 8.39 16.35"/><polygon class="cls-93" points="8.51 16.35 9.97 18.11 9.97 18.26 8.39 16.35 8.51 16.35"/><polygon class="cls-94" points="8.64 16.35 9.97 17.95 9.97 18.11 8.51 16.35 8.64 16.35"/><polygon class="cls-95" points="8.77 16.35 9.97 17.8 9.97 17.95 8.64 16.35 8.77 16.35"/><polygon class="cls-96" points="8.89 16.35 9.97 17.65 9.97 17.8 8.77 16.35 8.89 16.35"/><polygon class="cls-97" points="9.02 16.35 9.97 17.5 9.97 17.65 8.89 16.35 9.02 16.35"/><polygon class="cls-98" points="9.14 16.35 9.97 17.35 9.97 17.5 9.02 16.35 9.14 16.35"/><polygon class="cls-99" points="9.27 16.35 9.97 17.2 9.97 17.35 9.14 16.35 9.27 16.35"/><polygon class="cls-100" points="9.39 16.35 9.97 17.05 9.97 17.2 9.27 16.35 9.39 16.35"/><polygon class="cls-101" points="9.52 16.35 9.97 16.9 9.97 17.05 9.39 16.35 9.52 16.35"/><polygon class="cls-102" points="9.64 16.35 9.97 16.75 9.97 16.9 9.52 16.35 9.64 16.35"/><polygon class="cls-103" points="9.77 16.35 9.97 16.59 9.97 16.75 9.64 16.35 9.77 16.35"/><polygon class="cls-104" points="9.89 16.35 9.97 16.44 9.97 16.59 9.77 16.35 9.89 16.35"/><polygon class="cls-105" points="9.97 16.44 9.89 16.35 9.97 16.35 9.97 16.44"/></g></g></g><g class="cls-106"><g id="path5872"><g class="cls-107"><polygon class="cls-7" points="12.68 18.62 7.78 13.66 12.68 13.66 12.68 18.62"/><polygon class="cls-7" points="12.68 18.71 7.7 13.66 7.78 13.66 12.68 18.62 12.68 18.71"/><polygon class="cls-8" points="12.68 18.8 7.61 13.66 7.7 13.66 12.68 18.71 12.68 18.8"/><polygon class="cls-9" points="12.68 18.88 7.53 13.66 7.61 13.66 12.68 18.8 12.68 18.88"/><polygon class="cls-10" points="12.68 18.97 7.44 13.66 7.53 13.66 12.68 18.88 12.68 18.97"/><polygon class="cls-11" points="12.68 19.06 7.36 13.66 7.44 13.66 12.68 18.97 12.68 19.06"/><polygon class="cls-12" points="12.68 19.14 7.27 13.66 7.36 13.66 12.68 19.06 12.68 19.14"/><polygon class="cls-13" points="12.68 19.23 7.18 13.66 7.27 13.66 12.68 19.14 12.68 19.23"/><polygon class="cls-14" points="12.68 19.32 7.1 13.66 7.18 13.66 12.68 19.23 12.68 19.32"/><polygon class="cls-15" points="12.68 19.4 7.01 13.66 7.1 13.66 12.68 19.32 12.68 19.4"/><polygon class="cls-16" points="12.68 19.49 6.93 13.66 7.01 13.66 12.68 19.4 12.68 19.49"/><polygon class="cls-17" points="12.68 19.58 6.84 13.66 6.93 13.66 12.68 19.49 12.68 19.58"/><polygon class="cls-18" points="12.68 19.66 6.76 13.66 6.84 13.66 12.68 19.58 12.68 19.66"/><polygon class="cls-19" points="12.68 19.75 6.67 13.66 6.76 13.66 12.68 19.66 12.68 19.75"/><polygon class="cls-20" points="12.68 19.84 6.59 13.66 6.67 13.66 12.68 19.75 12.68 19.84"/><polygon class="cls-21" points="12.68 19.92 6.5 13.66 6.59 13.66 12.68 19.84 12.68 19.92"/><polygon class="cls-22" points="12.68 20.01 6.42 13.66 6.5 13.66 12.68 19.92 12.68 20.01"/><polygon class="cls-23" points="12.68 20.1 6.33 13.66 6.42 13.66 12.68 20.01 12.68 20.1"/><polygon class="cls-24" points="12.68 20.18 6.24 13.66 6.33 13.66 12.68 20.1 12.68 20.18"/><polygon class="cls-25" points="12.68 20.27 6.16 13.66 6.24 13.66 12.68 20.18 12.68 20.27"/><polygon class="cls-26" points="12.68 20.36 6.07 13.66 6.16 13.66 12.68 20.27 12.68 20.36"/><polygon class="cls-27" points="12.68 20.44 5.99 13.66 6.07 13.66 12.68 20.36 12.68 20.44"/><polygon class="cls-28" points="12.68 20.53 5.9 13.66 5.99 13.66 12.68 20.44 12.68 20.53"/><polygon class="cls-29" points="12.68 20.62 5.82 13.66 5.9 13.66 12.68 20.53 12.68 20.62"/><polygon class="cls-30" points="12.68 20.7 5.73 13.66 5.82 13.66 12.68 20.62 12.68 20.7"/><polygon class="cls-31" points="12.68 20.79 5.65 13.66 5.73 13.66 12.68 20.7 12.68 20.79"/><polygon class="cls-32" points="12.68 20.88 5.56 13.66 5.65 13.66 12.68 20.79 12.68 20.88"/><polygon class="cls-33" points="12.68 20.96 5.47 13.66 5.56 13.66 12.68 20.88 12.68 20.96"/><polygon class="cls-34" points="12.68 21.05 5.39 13.66 5.47 13.66 12.68 20.96 12.68 21.05"/><polygon class="cls-35" points="12.68 21.14 5.3 13.66 5.39 13.66 12.68 21.05 12.68 21.14"/><polygon class="cls-36" points="12.68 21.22 5.22 13.66 5.3 13.66 12.68 21.14 12.68 21.22"/><polygon class="cls-37" points="12.68 21.31 5.13 13.66 5.22 13.66 12.68 21.22 12.68 21.31"/><polygon class="cls-38" points="12.68 21.4 5.05 13.66 5.13 13.66 12.68 21.31 12.68 21.4"/><polygon class="cls-39" points="12.68 21.48 4.96 13.66 5.05 13.66 12.68 21.4 12.68 21.48"/><polygon class="cls-40" points="12.68 21.57 4.88 13.66 4.96 13.66 12.68 21.48 12.68 21.57"/><polygon class="cls-41" points="12.68 21.66 4.79 13.66 4.88 13.66 12.68 21.57 12.68 21.66"/><polygon class="cls-42" points="12.68 21.74 4.71 13.66 4.79 13.66 12.68 21.66 12.68 21.74"/><polygon class="cls-43" points="12.68 21.83 4.62 13.66 4.71 13.66 12.68 21.74 12.68 21.83"/><polygon class="cls-44" points="12.68 21.92 4.54 13.66 4.62 13.66 12.68 21.83 12.68 21.92"/><polygon class="cls-45" points="12.68 22 4.45 13.66 4.54 13.66 12.68 21.92 12.68 22"/><polygon class="cls-46" points="12.68 22.09 4.36 13.66 4.45 13.66 12.68 22 12.68 22.09"/><polygon class="cls-47" points="12.68 22.18 4.28 13.66 4.36 13.66 12.68 22.09 12.68 22.18"/><polygon class="cls-48" points="12.68 22.26 4.19 13.66 4.28 13.66 12.68 22.18 12.68 22.26"/><polygon class="cls-49" points="12.68 22.35 4.11 13.66 4.19 13.66 12.68 22.26 12.68 22.35"/><polygon class="cls-50" points="12.68 22.44 4.02 13.66 4.11 13.66 12.68 22.35 12.68 22.44"/><polygon class="cls-51" points="12.68 22.52 3.94 13.66 4.02 13.66 12.68 22.44 12.68 22.52"/><polygon class="cls-52" points="12.68 22.61 3.85 13.66 3.94 13.66 12.68 22.52 12.68 22.61"/><polygon class="cls-53" points="12.68 22.7 3.77 13.66 3.85 13.66 12.68 22.61 12.68 22.7"/><polygon class="cls-54" points="12.68 22.78 3.68 13.66 3.77 13.66 12.68 22.7 12.68 22.78"/><polygon class="cls-55" points="12.68 22.87 3.59 13.66 3.68 13.66 12.68 22.78 12.68 22.87"/><polygon class="cls-56" points="12.68 22.96 3.51 13.66 3.59 13.66 12.68 22.87 12.68 22.96"/><polygon class="cls-57" points="12.68 23.04 3.42 13.66 3.51 13.66 12.68 22.96 12.68 23.04"/><polygon class="cls-58" points="12.68 23.13 3.34 13.66 3.42 13.66 12.68 23.04 12.68 23.13"/><polygon class="cls-59" points="12.68 23.22 3.25 13.66 3.34 13.66 12.68 23.13 12.68 23.22"/><polygon class="cls-60" points="12.68 23.3 3.17 13.66 3.25 13.66 12.68 23.22 12.68 23.3"/><polygon class="cls-61" points="12.68 23.39 3.08 13.66 3.17 13.66 12.68 23.3 12.68 23.39"/><polygon class="cls-62" points="12.68 23.48 3 13.66 3.08 13.66 12.68 23.39 12.68 23.48"/><polygon class="cls-63" points="12.68 23.56 2.91 13.66 3 13.66 12.68 23.48 12.68 23.56"/><polygon class="cls-64" points="12.68 23.65 2.83 13.66 2.91 13.66 12.68 23.56 12.68 23.65"/><polygon class="cls-65" points="12.68 23.74 2.74 13.66 2.83 13.66 12.68 23.65 12.68 23.74"/><polygon class="cls-66" points="12.68 23.82 2.65 13.66 2.74 13.66 12.68 23.74 12.68 23.82"/><polygon class="cls-67" points="12.68 23.91 2.57 13.66 2.65 13.66 12.68 23.82 12.68 23.91"/><polygon class="cls-68" points="12.68 24 2.48 13.66 2.57 13.66 12.68 23.91 12.68 24"/><polygon class="cls-69" points="12.68 24.08 2.4 13.66 2.48 13.66 12.68 24 12.68 24.08"/><polygon class="cls-70" points="12.68 24.17 2.31 13.66 2.4 13.66 12.68 24.08 12.68 24.17"/><polygon class="cls-71" points="12.68 24.26 2.23 13.66 2.31 13.66 12.68 24.17 12.68 24.26"/><polygon class="cls-72" points="12.68 24.34 2.14 13.66 2.23 13.66 12.68 24.26 12.68 24.34"/><polygon class="cls-73" points="12.68 24.43 2.06 13.66 2.14 13.66 12.68 24.34 12.68 24.43"/><polygon class="cls-74" points="12.68 24.52 1.97 13.66 2.06 13.66 12.68 24.43 12.68 24.52"/><polygon class="cls-75" points="12.68 24.6 1.89 13.66 1.97 13.66 12.68 24.52 12.68 24.6"/><polygon class="cls-76" points="12.68 24.69 1.8 13.66 1.89 13.66 12.68 24.6 12.68 24.69"/><polygon class="cls-77" points="12.68 24.78 1.71 13.66 1.8 13.66 12.68 24.69 12.68 24.78"/><polygon class="cls-78" points="12.68 24.86 1.63 13.66 1.71 13.66 12.68 24.78 12.68 24.86"/><polygon class="cls-79" points="12.68 24.95 1.54 13.66 1.63 13.66 12.68 24.86 12.68 24.95"/><polygon class="cls-80" points="12.68 25.04 1.46 13.66 1.54 13.66 12.68 24.95 12.68 25.04"/><polygon class="cls-81" points="12.68 25.12 1.37 13.66 1.46 13.66 12.68 25.04 12.68 25.12"/><polygon class="cls-82" points="12.68 25.21 1.29 13.66 1.37 13.66 12.68 25.12 12.68 25.21"/><polygon class="cls-83" points="12.68 25.3 1.2 13.66 1.29 13.66 12.68 25.21 12.68 25.3"/><polygon class="cls-84" points="12.68 25.38 1.11 13.66 1.2 13.66 12.68 25.3 12.68 25.38"/><polygon class="cls-85" points="12.68 25.47 1.03 13.66 1.11 13.66 12.68 25.38 12.68 25.47"/><polygon class="cls-86" points="12.68 25.56 0.94 13.66 1.03 13.66 12.68 25.47 12.68 25.56"/><polygon class="cls-87" points="12.68 25.64 0.86 13.66 0.94 13.66 12.68 25.56 12.68 25.64"/><polygon class="cls-88" points="12.68 25.73 0.77 13.66 0.86 13.66 12.68 25.64 12.68 25.73"/><polygon class="cls-89" points="12.68 25.82 0.69 13.66 0.77 13.66 12.68 25.73 12.68 25.82"/><polygon class="cls-90" points="12.68 25.9 0.6 13.66 0.69 13.66 12.68 25.82 12.68 25.9"/><polygon class="cls-91" points="12.68 25.99 0.52 13.66 0.6 13.66 12.68 25.9 12.68 25.99"/><polygon class="cls-92" points="12.68 26.08 0.43 13.66 0.52 13.66 12.68 25.99 12.68 26.08"/><polygon class="cls-93" points="12.68 26.16 0.35 13.66 0.43 13.66 12.68 26.08 12.68 26.16"/><polygon class="cls-94" points="12.66 26.23 0.26 13.66 0.35 13.66 12.68 26.16 12.68 26.23 12.66 26.23"/><polygon class="cls-95" points="12.57 26.23 0.17 13.66 0.26 13.66 12.66 26.23 12.57 26.23"/><polygon class="cls-96" points="12.49 26.23 0.15 13.73 0.15 13.66 0.17 13.66 12.57 26.23 12.49 26.23"/><polygon class="cls-97" points="12.4 26.23 0.15 13.81 0.15 13.73 12.49 26.23 12.4 26.23"/><polygon class="cls-98" points="12.32 26.23 0.15 13.9 0.15 13.81 12.4 26.23 12.32 26.23"/><polygon class="cls-99" points="12.23 26.23 0.15 13.99 0.15 13.9 12.32 26.23 12.23 26.23"/><polygon class="cls-100" points="12.15 26.23 0.15 14.07 0.15 13.99 12.23 26.23 12.15 26.23"/><polygon class="cls-101" points="12.06 26.23 0.15 14.16 0.15 14.07 12.15 26.23 12.06 26.23"/><polygon class="cls-102" points="11.97 26.23 0.15 14.25 0.15 14.16 12.06 26.23 11.97 26.23"/><polygon class="cls-103" points="11.89 26.23 0.15 14.33 0.15 14.25 11.97 26.23 11.89 26.23"/><polygon class="cls-104" points="11.8 26.23 0.15 14.42 0.15 14.33 11.89 26.23 11.8 26.23"/><polygon class="cls-105" points="11.72 26.23 0.15 14.51 0.15 14.42 11.8 26.23 11.72 26.23"/><polygon class="cls-108" points="11.63 26.23 0.15 14.59 0.15 14.51 11.72 26.23 11.63 26.23"/><polygon class="cls-109" points="11.55 26.23 0.15 14.68 0.15 14.59 11.63 26.23 11.55 26.23"/><polygon class="cls-110" points="11.46 26.23 0.15 14.77 0.15 14.68 11.55 26.23 11.46 26.23"/><polygon class="cls-111" points="11.38 26.23 0.15 14.85 0.15 14.77 11.46 26.23 11.38 26.23"/><polygon class="cls-112" points="11.29 26.23 0.15 14.94 0.15 14.85 11.38 26.23 11.29 26.23"/><polygon class="cls-113" points="11.21 26.23 0.15 15.03 0.15 14.94 11.29 26.23 11.21 26.23"/><polygon class="cls-114" points="11.12 26.23 0.15 15.11 0.15 15.03 11.21 26.23 11.12 26.23"/><polygon class="cls-115" points="11.04 26.23 0.15 15.2 0.15 15.11 11.12 26.23 11.04 26.23"/><polygon class="cls-116" points="10.95 26.23 0.15 15.29 0.15 15.2 11.04 26.23 10.95 26.23"/><polygon class="cls-117" points="10.86 26.23 0.15 15.37 0.15 15.29 10.95 26.23 10.86 26.23"/><polygon class="cls-118" points="10.78 26.23 0.15 15.46 0.15 15.37 10.86 26.23 10.78 26.23"/><polygon class="cls-119" points="10.69 26.23 0.15 15.55 0.15 15.46 10.78 26.23 10.69 26.23"/><polygon class="cls-120" points="10.61 26.23 0.15 15.63 0.15 15.55 10.69 26.23 10.61 26.23"/><polygon class="cls-121" points="10.52 26.23 0.15 15.72 0.15 15.63 10.61 26.23 10.52 26.23"/><polygon class="cls-122" points="10.44 26.23 0.15 15.81 0.15 15.72 10.52 26.23 10.44 26.23"/><polygon class="cls-123" points="10.35 26.23 0.15 15.89 0.15 15.81 10.44 26.23 10.35 26.23"/><polygon class="cls-124" points="10.27 26.23 0.15 15.98 0.15 15.89 10.35 26.23 10.27 26.23"/><polygon class="cls-125" points="10.18 26.23 0.15 16.07 0.15 15.98 10.27 26.23 10.18 26.23"/><polygon class="cls-126" points="10.09 26.23 0.15 16.15 0.15 16.07 10.18 26.23 10.09 26.23"/><polygon class="cls-126" points="0.15 16.15 10.09 26.23 0.15 26.23 0.15 16.15"/></g><path class="cls-127" d="M.15,26.37a.11.11,0,0,1-.09,0,.12.12,0,0,1,0-.1V13.66a.14.14,0,0,1,.14-.13A12.72,12.72,0,0,1,12.81,26.2a.13.13,0,0,1,0,.1.15.15,0,0,1-.09,0l-12.53,0ZM.29,13.8V26.1l12.25,0A12.45,12.45,0,0,0,.29,13.8Z"/></g></g><g class="cls-128"><g id="path5876"><g class="cls-129"><polygon class="cls-7" points="10.36 20.74 6.11 15.88 10.36 15.88 10.36 20.74"/><polygon class="cls-7" points="10.36 20.83 6.03 15.88 6.11 15.88 10.36 20.74 10.36 20.83"/><polygon class="cls-8" points="10.36 20.92 5.95 15.88 6.03 15.88 10.36 20.83 10.36 20.92"/><polygon class="cls-9" points="10.36 21.02 5.87 15.88 5.95 15.88 10.36 20.92 10.36 21.02"/><polygon class="cls-10" points="10.36 21.11 5.79 15.88 5.87 15.88 10.36 21.02 10.36 21.11"/><polygon class="cls-11" points="10.36 21.2 5.71 15.88 5.79 15.88 10.36 21.11 10.36 21.2"/><polygon class="cls-12" points="10.36 21.29 5.63 15.88 5.71 15.88 10.36 21.2 10.36 21.29"/><polygon class="cls-13" points="10.36 21.38 5.54 15.88 5.63 15.88 10.36 21.29 10.36 21.38"/><polygon class="cls-14" points="10.36 21.47 5.46 15.88 5.54 15.88 10.36 21.38 10.36 21.47"/><polygon class="cls-15" points="10.36 21.57 5.38 15.88 5.46 15.88 10.36 21.47 10.36 21.57"/><polygon class="cls-16" points="10.36 21.66 5.3 15.88 5.38 15.88 10.36 21.57 10.36 21.66"/><polygon class="cls-17" points="10.36 21.75 5.22 15.88 5.3 15.88 10.36 21.66 10.36 21.75"/><polygon class="cls-18" points="10.36 21.84 5.14 15.88 5.22 15.88 10.36 21.75 10.36 21.84"/><polygon class="cls-19" points="10.36 21.93 5.06 15.88 5.14 15.88 10.36 21.84 10.36 21.93"/><polygon class="cls-20" points="10.36 22.02 4.98 15.88 5.06 15.88 10.36 21.93 10.36 22.02"/><polygon class="cls-21" points="10.36 22.12 4.9 15.88 4.98 15.88 10.36 22.02 10.36 22.12"/><polygon class="cls-22" points="10.36 22.21 4.82 15.88 4.9 15.88 10.36 22.12 10.36 22.21"/><polygon class="cls-23" points="10.36 22.3 4.74 15.88 4.82 15.88 10.36 22.21 10.36 22.3"/><polygon class="cls-24" points="10.36 22.39 4.66 15.88 4.74 15.88 10.36 22.3 10.36 22.39"/><polygon class="cls-25" points="10.36 22.48 4.58 15.88 4.66 15.88 10.36 22.39 10.36 22.48"/><polygon class="cls-26" points="10.36 22.58 4.5 15.88 4.58 15.88 10.36 22.48 10.36 22.58"/><polygon class="cls-27" points="10.36 22.67 4.42 15.88 4.5 15.88 10.36 22.58 10.36 22.67"/><polygon class="cls-28" points="10.36 22.76 4.34 15.88 4.42 15.88 10.36 22.67 10.36 22.76"/><polygon class="cls-29" points="10.36 22.85 4.26 15.88 4.34 15.88 10.36 22.76 10.36 22.85"/><polygon class="cls-30" points="10.36 22.94 4.18 15.88 4.26 15.88 10.36 22.85 10.36 22.94"/><polygon class="cls-31" points="10.36 23.04 4.1 15.88 4.18 15.88 10.36 22.94 10.36 23.04"/><polygon class="cls-32" points="10.36 23.13 4.02 15.88 4.1 15.88 10.36 23.04 10.36 23.13"/><polygon class="cls-33" points="10.36 23.22 3.94 15.88 4.02 15.88 10.36 23.13 10.36 23.22"/><polygon class="cls-34" points="10.36 23.31 3.86 15.88 3.94 15.88 10.36 23.22 10.36 23.31"/><polygon class="cls-35" points="10.36 23.4 3.78 15.88 3.86 15.88 10.36 23.31 10.36 23.4"/><polygon class="cls-36" points="10.36 23.49 3.7 15.88 3.78 15.88 10.36 23.4 10.36 23.49"/><polygon class="cls-37" points="10.36 23.59 3.62 15.88 3.7 15.88 10.36 23.49 10.36 23.59"/><polygon class="cls-38" points="10.36 23.68 3.54 15.88 3.62 15.88 10.36 23.59 10.36 23.68"/><polygon class="cls-39" points="10.36 23.77 3.46 15.88 3.54 15.88 10.36 23.68 10.36 23.77"/><polygon class="cls-40" points="10.36 23.86 3.38 15.88 3.46 15.88 10.36 23.77 10.36 23.86"/><polygon class="cls-41" points="10.36 23.95 3.29 15.88 3.38 15.88 10.36 23.86 10.36 23.95"/><polygon class="cls-42" points="10.36 24.05 3.21 15.88 3.29 15.88 10.36 23.95 10.36 24.05"/><polygon class="cls-43" points="10.36 24.14 3.13 15.88 3.21 15.88 10.36 24.05 10.36 24.14"/><polygon class="cls-44" points="10.36 24.23 3.05 15.88 3.13 15.88 10.36 24.14 10.36 24.23"/><polygon class="cls-45" points="10.36 24.32 2.97 15.88 3.05 15.88 10.36 24.23 10.36 24.32"/><polygon class="cls-46" points="10.36 24.41 2.89 15.88 2.97 15.88 10.36 24.32 10.36 24.41"/><polygon class="cls-47" points="10.36 24.5 2.81 15.88 2.89 15.88 10.36 24.41 10.36 24.5"/><polygon class="cls-48" points="10.36 24.6 2.73 15.88 2.81 15.88 10.36 24.5 10.36 24.6"/><polygon class="cls-49" points="10.36 24.69 2.65 15.88 2.73 15.88 10.36 24.6 10.36 24.69"/><polygon class="cls-50" points="10.36 24.78 2.57 15.88 2.65 15.88 10.36 24.69 10.36 24.78"/><polygon class="cls-51" points="10.36 24.87 2.49 15.88 2.57 15.88 10.36 24.78 10.36 24.87"/><polygon class="cls-52" points="10.36 24.96 2.41 15.88 2.49 15.88 10.36 24.87 10.36 24.96"/><polygon class="cls-53" points="10.36 25.06 2.33 15.88 2.41 15.88 10.36 24.96 10.36 25.06"/><polygon class="cls-54" points="10.36 25.15 2.25 15.88 2.33 15.88 10.36 25.06 10.36 25.15"/><polygon class="cls-55" points="10.36 25.24 2.17 15.88 2.25 15.88 10.36 25.15 10.36 25.24"/><polygon class="cls-56" points="10.36 25.33 2.09 15.88 2.17 15.88 10.36 25.24 10.36 25.33"/><polygon class="cls-57" points="10.36 25.42 2.01 15.88 2.09 15.88 10.36 25.33 10.36 25.42"/><polygon class="cls-58" points="10.36 25.52 1.93 15.88 2.01 15.88 10.36 25.42 10.36 25.52"/><polygon class="cls-59" points="10.36 25.61 1.85 15.88 1.93 15.88 10.36 25.52 10.36 25.61"/><polygon class="cls-60" points="10.36 25.7 1.77 15.88 1.85 15.88 10.36 25.61 10.36 25.7"/><polygon class="cls-61" points="10.36 25.79 1.69 15.88 1.77 15.88 10.36 25.7 10.36 25.79"/><polygon class="cls-62" points="10.36 25.88 1.61 15.88 1.69 15.88 10.36 25.79 10.36 25.88"/><polygon class="cls-63" points="10.36 25.97 1.53 15.88 1.61 15.88 10.36 25.88 10.36 25.97"/><polygon class="cls-64" points="10.36 26.07 1.45 15.88 1.53 15.88 10.36 25.97 10.36 26.07"/><polygon class="cls-65" points="10.36 26.16 1.37 15.88 1.45 15.88 10.36 26.07 10.36 26.16"/><polygon class="cls-66" points="10.36 26.25 1.28 15.88 1.37 15.88 10.36 26.16 10.36 26.25"/><polygon class="cls-67" points="10.36 26.34 1.21 15.88 1.28 15.88 10.36 26.25 10.36 26.34"/><polygon class="cls-68" points="10.36 26.43 1.13 15.88 1.21 15.88 10.36 26.34 10.36 26.43"/><polygon class="cls-69" points="10.36 26.52 1.04 15.88 1.13 15.88 10.36 26.43 10.36 26.52"/><polygon class="cls-70" points="10.34 26.59 0.96 15.88 1.04 15.88 10.36 26.52 10.36 26.59 10.34 26.59"/><polygon class="cls-71" points="10.26 26.59 0.88 15.88 0.96 15.88 10.34 26.59 10.26 26.59"/><polygon class="cls-72" points="10.18 26.59 0.8 15.88 0.88 15.88 10.26 26.59 10.18 26.59"/><polygon class="cls-73" points="10.1 26.59 0.72 15.88 0.8 15.88 10.18 26.59 10.1 26.59"/><polygon class="cls-74" points="10.02 26.59 0.64 15.88 0.72 15.88 10.1 26.59 10.02 26.59"/><polygon class="cls-75" points="9.94 26.59 0.56 15.88 0.64 15.88 10.02 26.59 9.94 26.59"/><polygon class="cls-76" points="9.86 26.59 0.48 15.88 0.56 15.88 9.94 26.59 9.86 26.59"/><polygon class="cls-77" points="9.78 26.59 0.4 15.88 0.48 15.88 9.86 26.59 9.78 26.59"/><polygon class="cls-78" points="9.69 26.59 0.32 15.88 0.4 15.88 9.78 26.59 9.69 26.59"/><polygon class="cls-79" points="9.61 26.59 0.24 15.88 0.32 15.88 9.69 26.59 9.61 26.59"/><polygon class="cls-80" points="9.53 26.59 0.22 15.94 0.22 15.88 0.24 15.88 9.61 26.59 9.53 26.59"/><polygon class="cls-81" points="9.45 26.59 0.22 16.04 0.22 15.94 9.53 26.59 9.45 26.59"/><polygon class="cls-82" points="9.37 26.59 0.22 16.13 0.22 16.04 9.45 26.59 9.37 26.59"/><polygon class="cls-83" points="9.29 26.59 0.22 16.22 0.22 16.13 9.37 26.59 9.29 26.59"/><polygon class="cls-84" points="9.21 26.59 0.22 16.31 0.22 16.22 9.29 26.59 9.21 26.59"/><polygon class="cls-85" points="9.13 26.59 0.22 16.4 0.22 16.31 9.21 26.59 9.13 26.59"/><polygon class="cls-86" points="9.05 26.59 0.22 16.5 0.22 16.4 9.13 26.59 9.05 26.59"/><polygon class="cls-87" points="8.97 26.59 0.22 16.59 0.22 16.5 9.05 26.59 8.97 26.59"/><polygon class="cls-88" points="8.89 26.59 0.22 16.68 0.22 16.59 8.97 26.59 8.89 26.59"/><polygon class="cls-89" points="8.81 26.59 0.22 16.77 0.22 16.68 8.89 26.59 8.81 26.59"/><polygon class="cls-90" points="8.73 26.59 0.22 16.86 0.22 16.77 8.81 26.59 8.73 26.59"/><polygon class="cls-91" points="8.65 26.59 0.22 16.95 0.22 16.86 8.73 26.59 8.65 26.59"/><polygon class="cls-92" points="8.57 26.59 0.22 17.05 0.22 16.95 8.65 26.59 8.57 26.59"/><polygon class="cls-93" points="8.49 26.59 0.22 17.14 0.22 17.05 8.57 26.59 8.49 26.59"/><polygon class="cls-94" points="8.41 26.59 0.22 17.23 0.22 17.14 8.49 26.59 8.41 26.59"/><polygon class="cls-95" points="8.33 26.59 0.22 17.32 0.22 17.23 8.41 26.59 8.33 26.59"/><polygon class="cls-96" points="8.25 26.59 0.22 17.41 0.22 17.32 8.33 26.59 8.25 26.59"/><polygon class="cls-97" points="8.17 26.59 0.22 17.5 0.22 17.41 8.25 26.59 8.17 26.59"/><polygon class="cls-98" points="8.09 26.59 0.22 17.6 0.22 17.5 8.17 26.59 8.09 26.59"/><polygon class="cls-99" points="8.01 26.59 0.22 17.69 0.22 17.6 8.09 26.59 8.01 26.59"/><polygon class="cls-100" points="7.93 26.59 0.22 17.78 0.22 17.69 8.01 26.59 7.93 26.59"/><polygon class="cls-101" points="7.85 26.59 0.22 17.87 0.22 17.78 7.93 26.59 7.85 26.59"/><polygon class="cls-102" points="7.76 26.59 0.22 17.96 0.22 17.87 7.85 26.59 7.76 26.59"/><polygon class="cls-103" points="7.68 26.59 0.22 18.06 0.22 17.96 7.76 26.59 7.68 26.59"/><polygon class="cls-104" points="7.61 26.59 0.22 18.15 0.22 18.06 7.68 26.59 7.61 26.59"/><polygon class="cls-105" points="7.52 26.59 0.22 18.24 0.22 18.15 7.61 26.59 7.52 26.59"/><polygon class="cls-108" points="7.44 26.59 0.22 18.33 0.22 18.24 7.52 26.59 7.44 26.59"/><polygon class="cls-109" points="7.36 26.59 0.22 18.42 0.22 18.33 7.44 26.59 7.36 26.59"/><polygon class="cls-110" points="7.28 26.59 0.22 18.52 0.22 18.42 7.36 26.59 7.28 26.59"/><polygon class="cls-111" points="7.2 26.59 0.22 18.61 0.22 18.52 7.28 26.59 7.2 26.59"/><polygon class="cls-112" points="7.12 26.59 0.22 18.7 0.22 18.61 7.2 26.59 7.12 26.59"/><polygon class="cls-113" points="7.04 26.59 0.22 18.79 0.22 18.7 7.12 26.59 7.04 26.59"/><polygon class="cls-114" points="6.96 26.59 0.22 18.88 0.22 18.79 7.04 26.59 6.96 26.59"/><polygon class="cls-115" points="6.88 26.59 0.22 18.97 0.22 18.88 6.96 26.59 6.88 26.59"/><polygon class="cls-116" points="6.8 26.59 0.22 19.07 0.22 18.97 6.88 26.59 6.8 26.59"/><polygon class="cls-117" points="6.72 26.59 0.22 19.16 0.22 19.07 6.8 26.59 6.72 26.59"/><polygon class="cls-118" points="6.64 26.59 0.22 19.25 0.22 19.16 6.72 26.59 6.64 26.59"/><polygon class="cls-119" points="6.56 26.59 0.22 19.34 0.22 19.25 6.64 26.59 6.56 26.59"/><polygon class="cls-120" points="6.48 26.59 0.22 19.43 0.22 19.34 6.56 26.59 6.48 26.59"/><polygon class="cls-121" points="6.4 26.59 0.22 19.52 0.22 19.43 6.48 26.59 6.4 26.59"/><polygon class="cls-122" points="6.32 26.59 0.22 19.62 0.22 19.52 6.4 26.59 6.32 26.59"/><polygon class="cls-123" points="6.24 26.59 0.22 19.71 0.22 19.62 6.32 26.59 6.24 26.59"/><polygon class="cls-124" points="6.16 26.59 0.22 19.8 0.22 19.71 6.24 26.59 6.16 26.59"/><polygon class="cls-125" points="6.08 26.59 0.22 19.89 0.22 19.8 6.16 26.59 6.08 26.59"/><polygon class="cls-126" points="6 26.59 0.22 19.98 0.22 19.89 6.08 26.59 6 26.59"/><polygon class="cls-126" points="0.22 19.98 6 26.59 0.22 26.59 0.22 19.98"/></g><path class="cls-127" d="M.22,26.75a.16.16,0,0,1-.12,0,.18.18,0,0,1,0-.12V15.88a.18.18,0,0,1,.17-.17c5.66,0,10.29,4.87,10.31,10.85a.17.17,0,0,1-.17.16l-10.14,0Zm.16-10.7V26.42l9.81,0A10.28,10.28,0,0,0,.38,16.05Z"/></g></g><g class="cls-130"><g id="path5026"><g class="cls-131"><polygon class="cls-7" points="7.58 21.85 4.56 18.32 7.58 18.32 7.58 21.85"/><polygon class="cls-7" points="7.58 21.93 4.5 18.32 4.56 18.32 7.58 21.85 7.58 21.93"/><polygon class="cls-8" points="7.58 22 4.44 18.32 4.5 18.32 7.58 21.93 7.58 22"/><polygon class="cls-9" points="7.58 22.08 4.37 18.32 4.44 18.32 7.58 22 7.58 22.08"/><polygon class="cls-10" points="7.58 22.15 4.31 18.32 4.37 18.32 7.58 22.08 7.58 22.15"/><polygon class="cls-11" points="7.58 22.23 4.25 18.32 4.31 18.32 7.58 22.15 7.58 22.23"/><polygon class="cls-12" points="7.58 22.3 4.18 18.32 4.25 18.32 7.58 22.23 7.58 22.3"/><polygon class="cls-13" points="7.58 22.38 4.12 18.32 4.18 18.32 7.58 22.3 7.58 22.38"/><polygon class="cls-14" points="7.58 22.45 4.05 18.32 4.12 18.32 7.58 22.38 7.58 22.45"/><polygon class="cls-15" points="7.58 22.52 3.99 18.32 4.05 18.32 7.58 22.45 7.58 22.52"/><polygon class="cls-16" points="7.58 22.6 3.93 18.32 3.99 18.32 7.58 22.52 7.58 22.6"/><polygon class="cls-17" points="7.58 22.67 3.86 18.32 3.93 18.32 7.58 22.6 7.58 22.67"/><polygon class="cls-18" points="7.58 22.75 3.8 18.32 3.86 18.32 7.58 22.67 7.58 22.75"/><polygon class="cls-19" points="7.58 22.82 3.73 18.32 3.8 18.32 7.58 22.75 7.58 22.82"/><polygon class="cls-20" points="7.58 22.9 3.67 18.32 3.73 18.32 7.58 22.82 7.58 22.9"/><polygon class="cls-21" points="7.58 22.97 3.61 18.32 3.67 18.32 7.58 22.9 7.58 22.97"/><polygon class="cls-22" points="7.58 23.05 3.54 18.32 3.61 18.32 7.58 22.97 7.58 23.05"/><polygon class="cls-23" points="7.58 23.12 3.48 18.32 3.54 18.32 7.58 23.05 7.58 23.12"/><polygon class="cls-24" points="7.58 23.2 3.42 18.32 3.48 18.32 7.58 23.12 7.58 23.2"/><polygon class="cls-25" points="7.58 23.27 3.35 18.32 3.42 18.32 7.58 23.2 7.58 23.27"/><polygon class="cls-26" points="7.58 23.35 3.29 18.32 3.35 18.32 7.58 23.27 7.58 23.35"/><polygon class="cls-27" points="7.58 23.42 3.22 18.32 3.29 18.32 7.58 23.35 7.58 23.42"/><polygon class="cls-28" points="7.58 23.5 3.16 18.32 3.22 18.32 7.58 23.42 7.58 23.5"/><polygon class="cls-29" points="7.58 23.57 3.1 18.32 3.16 18.32 7.58 23.5 7.58 23.57"/><polygon class="cls-30" points="7.58 23.65 3.03 18.32 3.1 18.32 7.58 23.57 7.58 23.65"/><polygon class="cls-31" points="7.58 23.72 2.97 18.32 3.03 18.32 7.58 23.65 7.58 23.72"/><polygon class="cls-32" points="7.58 23.8 2.9 18.32 2.97 18.32 7.58 23.72 7.58 23.8"/><polygon class="cls-33" points="7.58 23.87 2.84 18.32 2.9 18.32 7.58 23.8 7.58 23.87"/><polygon class="cls-34" points="7.58 23.94 2.78 18.32 2.84 18.32 7.58 23.87 7.58 23.94"/><polygon class="cls-35" points="7.58 24.02 2.71 18.32 2.78 18.32 7.58 23.94 7.58 24.02"/><polygon class="cls-36" points="7.58 24.09 2.65 18.32 2.71 18.32 7.58 24.02 7.58 24.09"/><polygon class="cls-37" points="7.58 24.17 2.59 18.32 2.65 18.32 7.58 24.09 7.58 24.17"/><polygon class="cls-38" points="7.58 24.24 2.52 18.32 2.59 18.32 7.58 24.17 7.58 24.24"/><polygon class="cls-39" points="7.58 24.32 2.46 18.32 2.52 18.32 7.58 24.24 7.58 24.32"/><polygon class="cls-40" points="7.58 24.39 2.4 18.32 2.46 18.32 7.58 24.32 7.58 24.39"/><polygon class="cls-41" points="7.58 24.47 2.33 18.32 2.4 18.32 7.58 24.39 7.58 24.47"/><polygon class="cls-42" points="7.58 24.54 2.27 18.32 2.33 18.32 7.58 24.47 7.58 24.54"/><polygon class="cls-43" points="7.58 24.62 2.2 18.32 2.27 18.32 7.58 24.54 7.58 24.62"/><polygon class="cls-44" points="7.58 24.69 2.14 18.32 2.2 18.32 7.58 24.62 7.58 24.69"/><polygon class="cls-45" points="7.58 24.77 2.08 18.32 2.14 18.32 7.58 24.69 7.58 24.77"/><polygon class="cls-46" points="7.58 24.84 2.01 18.32 2.08 18.32 7.58 24.77 7.58 24.84"/><polygon class="cls-47" points="7.58 24.92 1.95 18.32 2.01 18.32 7.58 24.84 7.58 24.92"/><polygon class="cls-48" points="7.58 24.99 1.89 18.32 1.95 18.32 7.58 24.92 7.58 24.99"/><polygon class="cls-49" points="7.58 25.07 1.82 18.32 1.89 18.32 7.58 24.99 7.58 25.07"/><polygon class="cls-50" points="7.58 25.14 1.76 18.32 1.82 18.32 7.58 25.07 7.58 25.14"/><polygon class="cls-51" points="7.58 25.21 1.69 18.32 1.76 18.32 7.58 25.14 7.58 25.21"/><polygon class="cls-52" points="7.58 25.29 1.63 18.32 1.69 18.32 7.58 25.21 7.58 25.29"/><polygon class="cls-53" points="7.58 25.36 1.57 18.32 1.63 18.32 7.58 25.29 7.58 25.36"/><polygon class="cls-54" points="7.58 25.44 1.5 18.32 1.57 18.32 7.58 25.36 7.58 25.44"/><polygon class="cls-55" points="7.58 25.51 1.44 18.32 1.5 18.32 7.58 25.44 7.58 25.51"/><polygon class="cls-56" points="7.58 25.59 1.37 18.32 1.44 18.32 7.58 25.51 7.58 25.59"/><polygon class="cls-57" points="7.58 25.66 1.31 18.32 1.37 18.32 7.58 25.59 7.58 25.66"/><polygon class="cls-58" points="7.58 25.74 1.25 18.32 1.31 18.32 7.58 25.66 7.58 25.74"/><polygon class="cls-59" points="7.58 25.81 1.18 18.32 1.25 18.32 7.58 25.74 7.58 25.81"/><polygon class="cls-60" points="7.58 25.89 1.12 18.32 1.18 18.32 7.58 25.81 7.58 25.89"/><polygon class="cls-61" points="7.58 25.96 1.05 18.32 1.12 18.32 7.58 25.89 7.58 25.96"/><polygon class="cls-62" points="7.58 26.04 0.99 18.32 1.05 18.32 7.58 25.96 7.58 26.04"/><polygon class="cls-63" points="7.52 26.04 0.93 18.32 0.99 18.32 7.58 26.04 7.58 26.04 7.52 26.04"/><polygon class="cls-64" points="7.45 26.04 0.86 18.32 0.93 18.32 7.52 26.04 7.45 26.04"/><polygon class="cls-65" points="7.39 26.04 0.8 18.32 0.86 18.32 7.45 26.04 7.39 26.04"/><polygon class="cls-66" points="7.33 26.04 0.74 18.32 0.8 18.32 7.39 26.04 7.33 26.04"/><polygon class="cls-67" points="7.26 26.04 0.67 18.32 0.74 18.32 7.33 26.04 7.26 26.04"/><polygon class="cls-68" points="7.2 26.04 0.61 18.32 0.67 18.32 7.26 26.04 7.2 26.04"/><polygon class="cls-69" points="7.13 26.04 0.55 18.32 0.61 18.32 7.2 26.04 7.13 26.04"/><polygon class="cls-70" points="7.07 26.04 0.48 18.32 0.55 18.32 7.13 26.04 7.07 26.04"/><polygon class="cls-71" points="7.01 26.04 0.42 18.32 0.48 18.32 7.07 26.04 7.01 26.04"/><polygon class="cls-72" points="6.94 26.04 0.35 18.32 0.42 18.32 7.01 26.04 6.94 26.04"/><polygon class="cls-73" points="6.88 26.04 0.29 18.32 0.35 18.32 6.94 26.04 6.88 26.04"/><polygon class="cls-74" points="6.82 26.04 0.23 18.32 0.29 18.32 6.88 26.04 6.82 26.04"/><polygon class="cls-75" points="6.75 26.04 0.16 18.32 0.23 18.32 6.82 26.04 6.75 26.04"/><polygon class="cls-76" points="6.69 26.04 0.14 18.37 0.14 18.32 0.16 18.32 6.75 26.04 6.69 26.04"/><polygon class="cls-77" points="6.62 26.04 0.14 18.44 0.14 18.37 6.69 26.04 6.62 26.04"/><polygon class="cls-78" points="6.56 26.04 0.14 18.52 0.14 18.44 6.62 26.04 6.56 26.04"/><polygon class="cls-79" points="6.5 26.04 0.14 18.59 0.14 18.52 6.56 26.04 6.5 26.04"/><polygon class="cls-80" points="6.43 26.04 0.14 18.66 0.14 18.59 6.5 26.04 6.43 26.04"/><polygon class="cls-81" points="6.37 26.04 0.14 18.74 0.14 18.66 6.43 26.04 6.37 26.04"/><polygon class="cls-82" points="6.3 26.04 0.14 18.81 0.14 18.74 6.37 26.04 6.3 26.04"/><polygon class="cls-83" points="6.24 26.04 0.14 18.89 0.14 18.81 6.3 26.04 6.24 26.04"/><polygon class="cls-84" points="6.18 26.04 0.14 18.96 0.14 18.89 6.24 26.04 6.18 26.04"/><polygon class="cls-85" points="6.11 26.04 0.14 19.04 0.14 18.96 6.18 26.04 6.11 26.04"/><polygon class="cls-86" points="6.05 26.04 0.14 19.11 0.14 19.04 6.11 26.04 6.05 26.04"/><polygon class="cls-87" points="5.99 26.04 0.14 19.19 0.14 19.11 6.05 26.04 5.99 26.04"/><polygon class="cls-88" points="5.92 26.04 0.14 19.26 0.14 19.19 5.99 26.04 5.92 26.04"/><polygon class="cls-89" points="5.86 26.04 0.14 19.34 0.14 19.26 5.92 26.04 5.86 26.04"/><polygon class="cls-90" points="5.79 26.04 0.14 19.41 0.14 19.34 5.86 26.04 5.79 26.04"/><polygon class="cls-91" points="5.73 26.04 0.14 19.49 0.14 19.41 5.79 26.04 5.73 26.04"/><polygon class="cls-92" points="5.67 26.04 0.14 19.56 0.14 19.49 5.73 26.04 5.67 26.04"/><polygon class="cls-93" points="5.6 26.04 0.14 19.64 0.14 19.56 5.67 26.04 5.6 26.04"/><polygon class="cls-94" points="5.54 26.04 0.14 19.71 0.14 19.64 5.6 26.04 5.54 26.04"/><polygon class="cls-95" points="5.48 26.04 0.14 19.79 0.14 19.71 5.54 26.04 5.48 26.04"/><polygon class="cls-96" points="5.41 26.04 0.14 19.86 0.14 19.79 5.48 26.04 5.41 26.04"/><polygon class="cls-97" points="5.35 26.04 0.14 19.93 0.14 19.86 5.41 26.04 5.35 26.04"/><polygon class="cls-98" points="5.28 26.04 0.14 20.01 0.14 19.93 5.35 26.04 5.28 26.04"/><polygon class="cls-99" points="5.22 26.04 0.14 20.09 0.14 20.01 5.28 26.04 5.22 26.04"/><polygon class="cls-100" points="5.16 26.04 0.14 20.16 0.14 20.09 5.22 26.04 5.16 26.04"/><polygon class="cls-101" points="5.09 26.04 0.14 20.23 0.14 20.16 5.16 26.04 5.09 26.04"/><polygon class="cls-102" points="5.03 26.04 0.14 20.31 0.14 20.23 5.09 26.04 5.03 26.04"/><polygon class="cls-103" points="4.96 26.04 0.14 20.38 0.14 20.31 5.03 26.04 4.96 26.04"/><polygon class="cls-104" points="4.9 26.04 0.14 20.46 0.14 20.38 4.96 26.04 4.9 26.04"/><polygon class="cls-105" points="4.84 26.04 0.14 20.53 0.14 20.46 4.9 26.04 4.84 26.04"/><polygon class="cls-108" points="4.77 26.04 0.14 20.61 0.14 20.53 4.84 26.04 4.77 26.04"/><polygon class="cls-109" points="4.71 26.04 0.14 20.68 0.14 20.61 4.77 26.04 4.71 26.04"/><polygon class="cls-110" points="4.65 26.04 0.14 20.76 0.14 20.68 4.71 26.04 4.65 26.04"/><polygon class="cls-111" points="4.58 26.04 0.14 20.83 0.14 20.76 4.65 26.04 4.58 26.04"/><polygon class="cls-112" points="4.52 26.04 0.14 20.91 0.14 20.83 4.58 26.04 4.52 26.04"/><polygon class="cls-113" points="4.46 26.04 0.14 20.98 0.14 20.91 4.52 26.04 4.46 26.04"/><polygon class="cls-114" points="4.39 26.04 0.14 21.06 0.14 20.98 4.46 26.04 4.39 26.04"/><polygon class="cls-115" points="4.33 26.04 0.14 21.13 0.14 21.06 4.39 26.04 4.33 26.04"/><polygon class="cls-116" points="4.26 26.04 0.14 21.21 0.14 21.13 4.33 26.04 4.26 26.04"/><polygon class="cls-117" points="4.2 26.04 0.14 21.28 0.14 21.21 4.26 26.04 4.2 26.04"/><polygon class="cls-118" points="4.14 26.04 0.14 21.36 0.14 21.28 4.2 26.04 4.14 26.04"/><polygon class="cls-119" points="4.07 26.04 0.14 21.43 0.14 21.36 4.14 26.04 4.07 26.04"/><polygon class="cls-120" points="4.01 26.04 0.14 21.5 0.14 21.43 4.07 26.04 4.01 26.04"/><polygon class="cls-121" points="3.94 26.04 0.14 21.58 0.14 21.5 4.01 26.04 3.94 26.04"/><polygon class="cls-122" points="3.88 26.04 0.14 21.65 0.14 21.58 3.94 26.04 3.88 26.04"/><polygon class="cls-123" points="3.82 26.04 0.14 21.73 0.14 21.65 3.88 26.04 3.82 26.04"/><polygon class="cls-124" points="3.75 26.04 0.14 21.8 0.14 21.73 3.82 26.04 3.75 26.04"/><polygon class="cls-125" points="3.69 26.04 0.14 21.88 0.14 21.8 3.75 26.04 3.69 26.04"/><polygon class="cls-126" points="3.63 26.04 0.14 21.95 0.14 21.88 3.69 26.04 3.63 26.04"/><polygon class="cls-126" points="0.14 21.95 3.63 26.04 0.14 26.04 0.14 21.95"/></g><path class="cls-127" d="M.14,26.27A.24.24,0,0,1,0,26.2.2.2,0,0,1-.09,26V18.32a.22.22,0,0,1,.23-.22A7.82,7.82,0,0,1,7.8,26a.19.19,0,0,1-.06.16.2.2,0,0,1-.16.07l-7.44,0Zm.22-7.72v7.26h7A7.39,7.39,0,0,0,.36,18.55Z"/></g></g><g class="cls-132"><g id="path5849"><g class="cls-133"><polygon class="cls-134" points="5.6 24.31 1.86 20.49 5.6 20.49 5.6 24.31"/><polygon class="cls-134" points="5.6 24.36 1.81 20.49 1.86 20.49 5.6 24.31 5.6 24.36"/><polygon class="cls-135" points="5.6 24.41 1.76 20.49 1.81 20.49 5.6 24.36 5.6 24.41"/><polygon class="cls-136" points="5.6 24.46 1.72 20.49 1.76 20.49 5.6 24.41 5.6 24.46"/><polygon class="cls-137" points="5.6 24.5 1.67 20.49 1.72 20.49 5.6 24.46 5.6 24.5"/><polygon class="cls-138" points="5.6 24.55 1.62 20.49 1.67 20.49 5.6 24.5 5.6 24.55"/><polygon class="cls-139" points="5.6 24.6 1.57 20.49 1.62 20.49 5.6 24.55 5.6 24.6"/><polygon class="cls-140" points="5.6 24.65 1.52 20.49 1.57 20.49 5.6 24.6 5.6 24.65"/><polygon class="cls-141" points="5.6 24.7 1.48 20.49 1.52 20.49 5.6 24.65 5.6 24.7"/><polygon class="cls-142" points="5.6 24.75 1.43 20.49 1.48 20.49 5.6 24.7 5.6 24.75"/><polygon class="cls-143" points="5.6 24.8 1.38 20.49 1.43 20.49 5.6 24.75 5.6 24.8"/><polygon class="cls-144" points="5.6 24.84 1.34 20.49 1.38 20.49 5.6 24.8 5.6 24.84"/><polygon class="cls-145" points="5.6 24.89 1.29 20.49 1.34 20.49 5.6 24.84 5.6 24.89"/><polygon class="cls-146" points="5.6 24.94 1.24 20.49 1.29 20.49 5.6 24.89 5.6 24.94"/><polygon class="cls-147" points="5.6 24.99 1.19 20.49 1.24 20.49 5.6 24.94 5.6 24.99"/><polygon class="cls-148" points="5.6 25.04 1.15 20.49 1.19 20.49 5.6 24.99 5.6 25.04"/><polygon class="cls-149" points="5.6 25.09 1.1 20.49 1.15 20.49 5.6 25.04 5.6 25.09"/><polygon class="cls-150" points="5.6 25.13 1.05 20.49 1.1 20.49 5.6 25.09 5.6 25.13"/><polygon class="cls-151" points="5.6 25.18 1 20.49 1.05 20.49 5.6 25.13 5.6 25.18"/><polygon class="cls-152" points="5.6 25.23 0.96 20.49 1 20.49 5.6 25.18 5.6 25.23"/><polygon class="cls-153" points="5.6 25.28 0.91 20.49 0.96 20.49 5.6 25.23 5.6 25.28"/><polygon class="cls-154" points="5.6 25.33 0.86 20.49 0.91 20.49 5.6 25.28 5.6 25.33"/><polygon class="cls-155" points="5.6 25.38 0.81 20.49 0.86 20.49 5.6 25.33 5.6 25.38"/><polygon class="cls-156" points="5.6 25.42 0.77 20.49 0.81 20.49 5.6 25.38 5.6 25.42"/><polygon class="cls-157" points="5.6 25.47 0.72 20.49 0.77 20.49 5.6 25.42 5.6 25.47"/><polygon class="cls-158" points="5.6 25.52 0.67 20.49 0.72 20.49 5.6 25.47 5.6 25.52"/><polygon class="cls-159" points="5.6 25.57 0.63 20.49 0.67 20.49 5.6 25.52 5.6 25.57"/><polygon class="cls-160" points="5.6 25.62 0.58 20.49 0.63 20.49 5.6 25.57 5.6 25.62"/><polygon class="cls-161" points="5.6 25.66 0.53 20.49 0.58 20.49 5.6 25.62 5.6 25.66"/><polygon class="cls-162" points="5.6 25.71 0.48 20.49 0.53 20.49 5.6 25.66 5.6 25.71"/><polygon class="cls-163" points="5.6 25.76 0.44 20.49 0.48 20.49 5.6 25.71 5.6 25.76"/><polygon class="cls-164" points="5.6 25.81 0.39 20.49 0.44 20.49 5.6 25.76 5.6 25.81"/><polygon class="cls-165" points="5.6 25.86 0.34 20.49 0.39 20.49 5.6 25.81 5.6 25.86"/><polygon class="cls-166" points="5.6 25.91 0.29 20.49 0.34 20.49 5.6 25.86 5.6 25.91"/><polygon class="cls-167" points="5.6 25.95 0.25 20.49 0.29 20.49 5.6 25.91 5.6 25.95"/><polygon class="cls-168" points="5.6 26 0.2 20.49 0.25 20.49 5.6 25.95 5.6 26"/><polygon class="cls-169" points="5.6 26.05 0.15 20.49 0.2 20.49 5.6 26 5.6 26.05"/><polygon class="cls-170" points="5.6 26.1 0.1 20.49 0.15 20.49 5.6 26.05 5.6 26.1"/><polygon class="cls-171" points="5.6 26.15 0.06 20.49 0.1 20.49 5.6 26.1 5.6 26.15"/><polygon class="cls-172" points="5.58 26.17 0.04 20.52 0.04 20.49 0.06 20.49 5.6 26.15 5.6 26.17 5.58 26.17"/><polygon class="cls-173" points="5.53 26.17 0.04 20.57 0.04 20.52 5.58 26.17 5.53 26.17"/><polygon class="cls-174" points="5.48 26.17 0.04 20.62 0.04 20.57 5.53 26.17 5.48 26.17"/><polygon class="cls-175" points="5.44 26.17 0.04 20.66 0.04 20.62 5.48 26.17 5.44 26.17"/><polygon class="cls-176" points="5.39 26.17 0.04 20.71 0.04 20.66 5.44 26.17 5.39 26.17"/><polygon class="cls-177" points="5.34 26.17 0.04 20.76 0.04 20.71 5.39 26.17 5.34 26.17"/><polygon class="cls-178" points="5.29 26.17 0.04 20.81 0.04 20.76 5.34 26.17 5.29 26.17"/><polygon class="cls-179" points="5.25 26.17 0.04 20.86 0.04 20.81 5.29 26.17 5.25 26.17"/><polygon class="cls-180" points="5.2 26.17 0.04 20.91 0.04 20.86 5.25 26.17 5.2 26.17"/><polygon class="cls-181" points="5.15 26.17 0.04 20.95 0.04 20.91 5.2 26.17 5.15 26.17"/><polygon class="cls-182" points="5.11 26.17 0.04 21 0.04 20.95 5.15 26.17 5.11 26.17"/><polygon class="cls-183" points="5.06 26.17 0.04 21.05 0.04 21 5.11 26.17 5.06 26.17"/><polygon class="cls-184" points="5.01 26.17 0.04 21.1 0.04 21.05 5.06 26.17 5.01 26.17"/><polygon class="cls-185" points="4.96 26.17 0.04 21.15 0.04 21.1 5.01 26.17 4.96 26.17"/><polygon class="cls-186" points="4.92 26.17 0.04 21.2 0.04 21.15 4.96 26.17 4.92 26.17"/><polygon class="cls-187" points="4.87 26.17 0.04 21.24 0.04 21.2 4.92 26.17 4.87 26.17"/><polygon class="cls-188" points="4.82 26.17 0.04 21.29 0.04 21.24 4.87 26.17 4.82 26.17"/><polygon class="cls-189" points="4.77 26.17 0.04 21.34 0.04 21.29 4.82 26.17 4.77 26.17"/><polygon class="cls-190" points="4.73 26.17 0.04 21.39 0.04 21.34 4.77 26.17 4.73 26.17"/><polygon class="cls-191" points="4.68 26.17 0.04 21.44 0.04 21.39 4.73 26.17 4.68 26.17"/><polygon class="cls-192" points="4.63 26.17 0.04 21.49 0.04 21.44 4.68 26.17 4.63 26.17"/><polygon class="cls-193" points="4.58 26.17 0.04 21.53 0.04 21.49 4.63 26.17 4.58 26.17"/><polygon class="cls-194" points="4.54 26.17 0.04 21.58 0.04 21.53 4.58 26.17 4.54 26.17"/><polygon class="cls-195" points="4.49 26.17 0.04 21.63 0.04 21.58 4.54 26.17 4.49 26.17"/><polygon class="cls-196" points="4.44 26.17 0.04 21.68 0.04 21.63 4.49 26.17 4.44 26.17"/><polygon class="cls-197" points="4.39 26.17 0.04 21.73 0.04 21.68 4.44 26.17 4.39 26.17"/><polygon class="cls-198" points="4.35 26.17 0.04 21.78 0.04 21.73 4.39 26.17 4.35 26.17"/><polygon class="cls-199" points="4.3 26.17 0.04 21.82 0.04 21.78 4.35 26.17 4.3 26.17"/><polygon class="cls-200" points="4.25 26.17 0.04 21.87 0.04 21.82 4.3 26.17 4.25 26.17"/><polygon class="cls-201" points="4.21 26.17 0.04 21.92 0.04 21.87 4.25 26.17 4.21 26.17"/><polygon class="cls-202" points="4.16 26.17 0.04 21.97 0.04 21.92 4.21 26.17 4.16 26.17"/><polygon class="cls-203" points="4.11 26.17 0.04 22.02 0.04 21.97 4.16 26.17 4.11 26.17"/><polygon class="cls-204" points="4.06 26.17 0.04 22.07 0.04 22.02 4.11 26.17 4.06 26.17"/><polygon class="cls-205" points="4.01 26.17 0.04 22.11 0.04 22.07 4.06 26.17 4.01 26.17"/><polygon class="cls-206" points="3.97 26.17 0.04 22.16 0.04 22.11 4.01 26.17 3.97 26.17"/><polygon class="cls-207" points="3.92 26.17 0.04 22.21 0.04 22.16 3.97 26.17 3.92 26.17"/><polygon class="cls-208" points="3.87 26.17 0.04 22.26 0.04 22.21 3.92 26.17 3.87 26.17"/><polygon class="cls-209" points="3.83 26.17 0.04 22.31 0.04 22.26 3.87 26.17 3.83 26.17"/><polygon class="cls-210" points="3.78 26.17 0.04 22.36 0.04 22.31 3.83 26.17 3.78 26.17"/><polygon class="cls-211" points="3.73 26.17 0.04 22.4 0.04 22.36 3.78 26.17 3.73 26.17"/><polygon class="cls-212" points="3.68 26.17 0.04 22.45 0.04 22.4 3.73 26.17 3.68 26.17"/><polygon class="cls-213" points="3.64 26.17 0.04 22.5 0.04 22.45 3.68 26.17 3.64 26.17"/><polygon class="cls-214" points="3.59 26.17 0.04 22.55 0.04 22.5 3.64 26.17 3.59 26.17"/><polygon class="cls-215" points="3.54 26.17 0.04 22.6 0.04 22.55 3.59 26.17 3.54 26.17"/><polygon class="cls-216" points="3.49 26.17 0.04 22.64 0.04 22.6 3.54 26.17 3.49 26.17"/><polygon class="cls-217" points="3.45 26.17 0.04 22.69 0.04 22.64 3.49 26.17 3.45 26.17"/><polygon class="cls-218" points="3.4 26.17 0.04 22.74 0.04 22.69 3.45 26.17 3.4 26.17"/><polygon class="cls-219" points="3.35 26.17 0.04 22.79 0.04 22.74 3.4 26.17 3.35 26.17"/><polygon class="cls-220" points="3.31 26.17 0.04 22.84 0.04 22.79 3.35 26.17 3.31 26.17"/><polygon class="cls-221" points="3.26 26.17 0.04 22.89 0.04 22.84 3.31 26.17 3.26 26.17"/><polygon class="cls-222" points="3.21 26.17 0.04 22.93 0.04 22.89 3.26 26.17 3.21 26.17"/><polygon class="cls-223" points="3.16 26.17 0.04 22.98 0.04 22.93 3.21 26.17 3.16 26.17"/><polygon class="cls-224" points="3.12 26.17 0.04 23.03 0.04 22.98 3.16 26.17 3.12 26.17"/><polygon class="cls-225" points="3.07 26.17 0.04 23.08 0.04 23.03 3.12 26.17 3.07 26.17"/><polygon class="cls-226" points="3.02 26.17 0.04 23.13 0.04 23.08 3.07 26.17 3.02 26.17"/><polygon class="cls-227" points="2.97 26.17 0.04 23.18 0.04 23.13 3.02 26.17 2.97 26.17"/><polygon class="cls-228" points="2.93 26.17 0.04 23.23 0.04 23.18 2.97 26.17 2.93 26.17"/><polygon class="cls-229" points="2.88 26.17 0.04 23.27 0.04 23.23 2.93 26.17 2.88 26.17"/><polygon class="cls-230" points="2.83 26.17 0.04 23.32 0.04 23.27 2.88 26.17 2.83 26.17"/><polygon class="cls-231" points="2.78 26.17 0.04 23.37 0.04 23.32 2.83 26.17 2.78 26.17"/><polygon class="cls-232" points="2.74 26.17 0.04 23.42 0.04 23.37 2.78 26.17 2.74 26.17"/><polygon class="cls-233" points="2.69 26.17 0.04 23.47 0.04 23.42 2.74 26.17 2.69 26.17"/><polygon class="cls-234" points="2.64 26.17 0.04 23.51 0.04 23.47 2.69 26.17 2.64 26.17"/><polygon class="cls-235" points="2.59 26.17 0.04 23.56 0.04 23.51 2.64 26.17 2.59 26.17"/><polygon class="cls-236" points="2.55 26.17 0.04 23.61 0.04 23.56 2.59 26.17 2.55 26.17"/><polygon class="cls-237" points="2.5 26.17 0.04 23.66 0.04 23.61 2.55 26.17 2.5 26.17"/><polygon class="cls-238" points="2.45 26.17 0.04 23.71 0.04 23.66 2.5 26.17 2.45 26.17"/><polygon class="cls-239" points="2.4 26.17 0.04 23.76 0.04 23.71 2.45 26.17 2.4 26.17"/><polygon class="cls-240" points="2.36 26.17 0.04 23.8 0.04 23.76 2.4 26.17 2.36 26.17"/><polygon class="cls-241" points="2.31 26.17 0.04 23.85 0.04 23.8 2.36 26.17 2.31 26.17"/><polygon class="cls-242" points="2.26 26.17 0.04 23.9 0.04 23.85 2.31 26.17 2.26 26.17"/><polygon class="cls-243" points="2.22 26.17 0.04 23.95 0.04 23.9 2.26 26.17 2.22 26.17"/><polygon class="cls-244" points="2.17 26.17 0.04 24 0.04 23.95 2.22 26.17 2.17 26.17"/><polygon class="cls-245" points="2.12 26.17 0.04 24.05 0.04 24 2.17 26.17 2.12 26.17"/><polygon class="cls-246" points="2.07 26.17 0.04 24.09 0.04 24.05 2.12 26.17 2.07 26.17"/><polygon class="cls-247" points="2.03 26.17 0.04 24.14 0.04 24.09 2.07 26.17 2.03 26.17"/><polygon class="cls-248" points="1.98 26.17 0.04 24.19 0.04 24.14 2.03 26.17 1.98 26.17"/><polygon class="cls-249" points="1.93 26.17 0.04 24.24 0.04 24.19 1.98 26.17 1.93 26.17"/><polygon class="cls-250" points="1.88 26.17 0.04 24.29 0.04 24.24 1.93 26.17 1.88 26.17"/><polygon class="cls-251" points="1.84 26.17 0.04 24.34 0.04 24.29 1.88 26.17 1.84 26.17"/><polygon class="cls-252" points="1.79 26.17 0.04 24.38 0.04 24.34 1.84 26.17 1.79 26.17"/><polygon class="cls-253" points="1.74 26.17 0.04 24.43 0.04 24.38 1.79 26.17 1.74 26.17"/><polygon class="cls-254" points="1.7 26.17 0.04 24.48 0.04 24.43 1.74 26.17 1.7 26.17"/><polygon class="cls-255" points="1.65 26.17 0.04 24.53 0.04 24.48 1.7 26.17 1.65 26.17"/><polygon class="cls-256" points="1.6 26.17 0.04 24.58 0.04 24.53 1.65 26.17 1.6 26.17"/><polygon class="cls-257" points="1.55 26.17 0.04 24.63 0.04 24.58 1.6 26.17 1.55 26.17"/><polygon class="cls-258" points="1.5 26.17 0.04 24.67 0.04 24.63 1.55 26.17 1.5 26.17"/><polygon class="cls-259" points="1.46 26.17 0.04 24.72 0.04 24.67 1.5 26.17 1.46 26.17"/><polygon class="cls-260" points="1.41 26.17 0.04 24.77 0.04 24.72 1.46 26.17 1.41 26.17"/><polygon class="cls-261" points="1.36 26.17 0.04 24.82 0.04 24.77 1.41 26.17 1.36 26.17"/><polygon class="cls-262" points="1.32 26.17 0.04 24.87 0.04 24.82 1.36 26.17 1.32 26.17"/><polygon class="cls-263" points="1.27 26.17 0.04 24.91 0.04 24.87 1.32 26.17 1.27 26.17"/><polygon class="cls-264" points="1.22 26.17 0.04 24.96 0.04 24.91 1.27 26.17 1.22 26.17"/><polygon class="cls-265" points="1.17 26.17 0.04 25.01 0.04 24.96 1.22 26.17 1.17 26.17"/><polygon class="cls-266" points="1.13 26.17 0.04 25.06 0.04 25.01 1.17 26.17 1.13 26.17"/><polygon class="cls-267" points="1.08 26.17 0.04 25.11 0.04 25.06 1.13 26.17 1.08 26.17"/><polygon class="cls-268" points="1.03 26.17 0.04 25.16 0.04 25.11 1.08 26.17 1.03 26.17"/><polygon class="cls-269" points="0.98 26.17 0.04 25.2 0.04 25.16 1.03 26.17 0.98 26.17"/><polygon class="cls-270" points="0.94 26.17 0.04 25.25 0.04 25.2 0.98 26.17 0.94 26.17"/><polygon class="cls-271" points="0.89 26.17 0.04 25.3 0.04 25.25 0.94 26.17 0.89 26.17"/><polygon class="cls-272" points="0.84 26.17 0.04 25.35 0.04 25.3 0.89 26.17 0.84 26.17"/><polygon class="cls-273" points="0.8 26.17 0.04 25.4 0.04 25.35 0.84 26.17 0.8 26.17"/><polygon class="cls-274" points="0.75 26.17 0.04 25.45 0.04 25.4 0.8 26.17 0.75 26.17"/><polygon class="cls-275" points="0.7 26.17 0.04 25.5 0.04 25.45 0.75 26.17 0.7 26.17"/><polygon class="cls-276" points="0.65 26.17 0.04 25.54 0.04 25.5 0.7 26.17 0.65 26.17"/><polygon class="cls-277" points="0.6 26.17 0.04 25.59 0.04 25.54 0.65 26.17 0.6 26.17"/><polygon class="cls-277" points="0.04 25.59 0.6 26.17 0.04 26.17 0.04 25.59"/></g></g></g><g id="rect6215-8"><path class="cls-278" d="M8.74,26.08H1.58A1.58,1.58,0,0,1,0,24.5v-7a1.58,1.58,0,0,1,1.58-1.58H8.74a1.58,1.58,0,0,1,1.58,1.58v7A1.58,1.58,0,0,1,8.74,26.08ZM1.58,16.55a.94.94,0,0,0-.95.95v7a.94.94,0,0,0,1,.95H8.74a.94.94,0,0,0,.95-.95v-7a.94.94,0,0,0-.95-.95Z"/></g></g><g id="text6660"><g id="path7641"><path class="cls-279" d="M11.36,25.1v-9h2.73l1.63,6.17,1.62-6.17h2.74v9h-1.7V18l-1.8,7.12H14.83L13.05,18V25.1H11.36"/></g><g id="path7643"><path class="cls-279" d="M27.65,24a5.91,5.91,0,0,0,1.45.76l-.67,1.3a3.86,3.86,0,0,1-.81-.34c-.07,0-.47-.29-1.22-.81a4.83,4.83,0,0,1-2,.39,4.3,4.3,0,0,1-3.26-1.23A4.81,4.81,0,0,1,20,20.62a4.76,4.76,0,0,1,1.18-3.45,4.24,4.24,0,0,1,3.2-1.23,4.23,4.23,0,0,1,3.19,1.23,4.85,4.85,0,0,1,1.18,3.45,6,6,0,0,1-.32,2.05A4.42,4.42,0,0,1,27.65,24m-1.47-1a2.91,2.91,0,0,0,.51-1,4.57,4.57,0,0,0,.18-1.34,3.33,3.33,0,0,0-.69-2.33,2.5,2.5,0,0,0-3.63,0,3.47,3.47,0,0,0-.69,2.33A3.52,3.52,0,0,0,22.55,23a2.26,2.26,0,0,0,1.77.77,2.3,2.3,0,0,0,.74-.12,4.62,4.62,0,0,0-1.13-.57l.51-1a6.24,6.24,0,0,1,1.74.93"/></g><g id="path7645"><path class="cls-279" d="M30.37,25.1V17.59H27.68V16.07h7.18v1.52H32.19V25.1H30.37"/></g><g id="path7647"><path class="cls-279" d="M37.5,25.1V17.59H34.82V16.07H42v1.52H39.33V25.1H37.5"/></g></g><path class="cls-279" d="M39.81,17.55h.41v.39h-.41Z"/><path class="cls-279" d="M40.87,18.26a1.53,1.53,0,0,1,.56.09,1.12,1.12,0,0,1,.29.19.7.7,0,0,1,.19.27,1,1,0,0,1,.09.44.92.92,0,0,1-.3.72,1.37,1.37,0,0,1-1.63,0,1,1,0,0,1,0-1.44A1.12,1.12,0,0,1,40.87,18.26Zm0,.42a.86.86,0,0,0-.55.16.52.52,0,0,0-.19.41.5.5,0,0,0,.18.4,1.09,1.09,0,0,0,1.12,0,.51.51,0,0,0,.18-.41.49.49,0,0,0-.19-.41A.84.84,0,0,0,40.89,18.68Z"/><path class="cls-279" d="M39.81,20.56H42v.87a1.75,1.75,0,0,1-.05.47.49.49,0,0,1-.21.24.64.64,0,0,1-.34.09.61.61,0,0,1-.4-.14.66.66,0,0,1-.2-.4.79.79,0,0,1-.18.22,2.08,2.08,0,0,1-.35.23l-.42.25V21.9l.47-.3c.17-.1.27-.18.32-.21a.38.38,0,0,0,.09-.13.91.91,0,0,0,0-.21V21h-.9Zm1.24.41v.31a1.36,1.36,0,0,0,0,.37.31.31,0,0,0,.09.11.27.27,0,0,0,.16,0,.35.35,0,0,0,.18-.05.27.27,0,0,0,.08-.16,1.8,1.8,0,0,0,0-.3V21Z"/><path class="cls-279" d="M40.6,23.56H41v.89h-.86a1,1,0,0,1-.23-.38,1.19,1.19,0,0,1-.1-.49,1,1,0,0,1,.14-.56.88.88,0,0,1,.4-.36,1.4,1.4,0,0,1,.58-.12,1.25,1.25,0,0,1,.59.14.89.89,0,0,1,.4.39,1,1,0,0,1,.11.49.94.94,0,0,1-.17.59.74.74,0,0,1-.46.27L41.29,24a.42.42,0,0,0,.25-.16.48.48,0,0,0,.09-.29.54.54,0,0,0-.18-.43.77.77,0,0,0-.54-.16.86.86,0,0,0-.57.16.52.52,0,0,0-.19.42.6.6,0,0,0,.05.26.91.91,0,0,0,.13.22h.27Z"/></svg>