<svg id="Layer_1" data-name="Layer 1" xmlns="http://www.w3.org/2000/svg" viewBox="0 0 42 42"><defs><style>.cls-1{fill:#bdc2c6;}</style></defs><title>REST</title><g id="RESTful"><path class="cls-1" d="M17.29,16.84a11.59,11.59,0,0,1,2.12-.17,3.49,3.49,0,0,1,2.47.69A2.15,2.15,0,0,1,22.56,19a2.26,2.26,0,0,1-1.62,2.19v0a2.16,2.16,0,0,1,1.27,1.73,12.71,12.71,0,0,0,.66,2.35H21.72a11,11,0,0,1-.57-2.05c-.26-1.18-.71-1.63-1.72-1.66h-1v3.71h-1.1Zm1.1,3.9h1.13c1.18,0,1.93-.65,1.93-1.62s-.8-1.59-2-1.6a4,4,0,0,0-1.09.1Z"/><path class="cls-1" d="M28.55,21.28H25.22v3.08h3.71v.93H24.12V16.73h4.62v.93H25.22v2.7h3.33Z"/><path class="cls-1" d="M30.22,23.94a3.85,3.85,0,0,0,2,.56C33.33,24.5,34,23.9,34,23s-.46-1.26-1.61-1.7c-1.4-.5-2.26-1.22-2.26-2.43s1.1-2.32,2.76-2.32a3.86,3.86,0,0,1,1.9.42l-.31.9a3.42,3.42,0,0,0-1.62-.41c-1.17,0-1.62.7-1.62,1.28,0,.8.52,1.2,1.71,1.65,1.44.56,2.18,1.26,2.18,2.52s-1,2.46-3,2.46a4.41,4.41,0,0,1-2.19-.55Z"/><path class="cls-1" d="M38.26,17.67h-2.6v-.94H42v.94H39.38v7.62H38.26Z"/></g><path class="cls-1" d="M13.29,21a6.67,6.67,0,0,1-6.8,6.64,6.65,6.65,0,0,1,.26-13.3A6.66,6.66,0,0,1,13.29,21ZM4.62,17.08H4.06A1.13,1.13,0,0,0,2.9,18.26c0,.42,0,.84,0,1.25a2.8,2.8,0,0,1-.22.8c-.1.2-.35.2-.56.21,0,0-.11.11-.12.17s0,.41,0,.61.05.19.19.19a.55.55,0,0,1,.63.5,2.17,2.17,0,0,1,.08.51c0,.42,0,.85,0,1.27a1.11,1.11,0,0,0,.56,1,2,2,0,0,0,1.16.14v-.42c0-.38,0-.38-.39-.4s-.37-.08-.4-.35,0-.68,0-1A1.92,1.92,0,0,0,3,21a1.42,1.42,0,0,0,.68-1.1c0-.42.07-.84.08-1.25,0-.59.11-.79.67-.74,0,0,.15-.07.15-.12C4.62,17.56,4.62,17.33,4.62,17.08Zm4.06,7.84h.61A1,1,0,0,0,10.36,24c.07-.41.05-.83.08-1.25a5.51,5.51,0,0,1,.08-.71.58.58,0,0,1,.65-.53c.13,0,.19,0,.18-.18s0-.38,0-.57,0-.23-.23-.23a.51.51,0,0,1-.56-.42,2.52,2.52,0,0,1-.11-.61c0-.42,0-.84,0-1.26a1.13,1.13,0,0,0-1.18-1.15c-.54,0-.54,0-.54.51a1,1,0,0,1,0,.17c0,.13,0,.18.16.17a1.61,1.61,0,0,1,.22,0c.27,0,.37.08.42.34a4.07,4.07,0,0,1,0,.5c0,.4,0,.81.09,1.2a1.41,1.41,0,0,0,.68,1,1.37,1.37,0,0,0-.68,1.1,10.66,10.66,0,0,0-.08,1.26c0,.6-.13.79-.68.73-.1,0-.16,0-.16.14S8.68,24.67,8.68,24.92ZM4.76,21.53A.53.53,0,0,0,5.31,21a.56.56,0,0,0-.54-.53.54.54,0,1,0,0,1.07Zm1.88,0A.5.5,0,0,0,7.18,21a.52.52,0,0,0-.52-.56.53.53,0,0,0-.55.54A.52.52,0,0,0,6.64,21.53Zm1.89,0A.55.55,0,0,0,9.09,21a.57.57,0,0,0-.55-.54A.55.55,0,0,0,8,21,.54.54,0,0,0,8.53,21.53Z"/></svg>