<svg id="Layer_1" data-name="Layer 1" xmlns="http://www.w3.org/2000/svg" viewBox="0 0 42 42"><defs><style>.cls-1{fill:#00bc86;}</style></defs><title>solace</title><path class="cls-1" d="M0,23.67H.42a2.32,2.32,0,0,0,.81,1.51,2,2,0,0,0,1.23.45,1.19,1.19,0,0,0,.84-.26.9.9,0,0,0,.27-.68A.94.94,0,0,0,3.28,24a2.35,2.35,0,0,0-.52-.33l-1.11-.54A3.53,3.53,0,0,1,.4,22.2,1.88,1.88,0,0,1,0,21a2.1,2.1,0,0,1,.6-1.5,2.23,2.23,0,0,1,1.69-.63,3.42,3.42,0,0,1,1,.16,3.48,3.48,0,0,0,.66.15.37.37,0,0,0,.26-.07.75.75,0,0,0,.13-.22H4.7v2.16H4.32a2.61,2.61,0,0,0-.69-1.22,1.59,1.59,0,0,0-1.13-.46,1,1,0,0,0-.74.28.88.88,0,0,0-.24.6.79.79,0,0,0,.22.52,2.32,2.32,0,0,0,.8.56l.82.39a4.35,4.35,0,0,1,1.11.71,2,2,0,0,1,.58,1.43,2.35,2.35,0,0,1-.6,1.55,2.22,2.22,0,0,1-1.81.72,3.05,3.05,0,0,1-.6-.06,4.75,4.75,0,0,1-.74-.22L1,25.78l-.17-.06H.78a.26.26,0,0,0-.21.1,1.35,1.35,0,0,0-.21.33H0Z"/><path class="cls-1" d="M6.49,19.91a3.13,3.13,0,0,1,2.41-1,3.1,3.1,0,0,1,2.43,1.06,3.75,3.75,0,0,1,.94,2.58,3.8,3.8,0,0,1-.93,2.57A3.07,3.07,0,0,1,8.9,26.16a3.12,3.12,0,0,1-2.41-1.05,3.74,3.74,0,0,1-1-2.6A3.67,3.67,0,0,1,6.49,19.91Zm1.4,4.79c.17.65.51,1,1,1a.92.92,0,0,0,.95-.75,9.18,9.18,0,0,0,.23-2.42,8.73,8.73,0,0,0-.24-2.42.92.92,0,0,0-.93-.74c-.5,0-.84.32-1,1a9.92,9.92,0,0,0-.17,2.19A9.84,9.84,0,0,0,7.89,24.7Z"/><path class="cls-1" d="M12.69,25.78a1.17,1.17,0,0,0,.56-.25,1.68,1.68,0,0,0,.16-.86v-7.6a.93.93,0,0,0-.15-.63,1.18,1.18,0,0,0-.57-.24v-.36h2.83v8.83a1.68,1.68,0,0,0,.16.86,1.26,1.26,0,0,0,.57.26v.35H12.69Z"/><path class="cls-1" d="M17.72,22.94a13.08,13.08,0,0,1,3-1.19V20.66a1.43,1.43,0,0,0-.28-1,1.29,1.29,0,0,0-1-.32,1.34,1.34,0,0,0-.66.15.44.44,0,0,0-.25.38.26.26,0,0,0,0,.14.66.66,0,0,0,.08.13l.09.1a1.34,1.34,0,0,1,.17.27.91.91,0,0,1,.06.32.81.81,0,0,1-.28.65,1,1,0,0,1-.65.24,1.11,1.11,0,0,1-.74-.26.9.9,0,0,1-.3-.73,1.52,1.52,0,0,1,.81-1.36,3.66,3.66,0,0,1,2-.51,4.26,4.26,0,0,1,2.12.49,1.93,1.93,0,0,1,.85,1.83v3.61a.4.4,0,0,0,.08.27.24.24,0,0,0,.19.12.42.42,0,0,0,.16,0,1.1,1.1,0,0,0,.21-.18l.23.32a2.38,2.38,0,0,1-1,.71,1.9,1.9,0,0,1-.71.13,1.15,1.15,0,0,1-1-.38,1.57,1.57,0,0,1-.26-.65,3.51,3.51,0,0,1-1.4.87,2.76,2.76,0,0,1-.93.16,1.87,1.87,0,0,1-1.14-.39,1.39,1.39,0,0,1-.54-1.21A1.8,1.8,0,0,1,17.72,22.94Zm2.6,1.92a3.11,3.11,0,0,0,.42-.41V22.26a3.13,3.13,0,0,0-1,.46,1.61,1.61,0,0,0-.77,1.36,1.1,1.1,0,0,0,.23.75.66.66,0,0,0,.49.25A1.2,1.2,0,0,0,20.32,24.86Z"/><path class="cls-1" d="M29.09,19.33a1.37,1.37,0,0,1,.69,1.18.94.94,0,0,1-.27.67,1,1,0,0,1-1.19.15.87.87,0,0,1-.4-.84,1.64,1.64,0,0,1,0-.2V20a.67.67,0,0,0-.18-.54.65.65,0,0,0-.43-.14,1,1,0,0,0-1,.76,4.74,4.74,0,0,0-.3,1.74,4.57,4.57,0,0,0,.56,2.35,1.68,1.68,0,0,0,1.49.95,1.9,1.9,0,0,0,1-.26,3.27,3.27,0,0,0,.61-.57l.28.26A3.75,3.75,0,0,1,28.28,26a3.07,3.07,0,0,1-1.1.2,3,3,0,0,1-2.35-1,3.64,3.64,0,0,1-.91-2.51,3.88,3.88,0,0,1,1-2.66,3.25,3.25,0,0,1,2.57-1.09A2.84,2.84,0,0,1,29.09,19.33Z"/><path class="cls-1" d="M31.26,19.83a3,3,0,0,1,2.21-.95,2.68,2.68,0,0,1,1.39.39,2.65,2.65,0,0,1,1,1.07,4.24,4.24,0,0,1,.36,1.34,3.84,3.84,0,0,1,.05.59H32.46a5.63,5.63,0,0,0,.29,1.55,1.59,1.59,0,0,0,1.55,1.23,1.68,1.68,0,0,0,1-.33,4.81,4.81,0,0,0,.71-.66l.34.21a3.91,3.91,0,0,1-1.61,1.58,3.09,3.09,0,0,1-1.36.29,3,3,0,0,1-2.06-.87,3.51,3.51,0,0,1-1-2.77A3.67,3.67,0,0,1,31.26,19.83Zm3.17,1.89a6.3,6.3,0,0,0-.2-1.85.74.74,0,0,0-.76-.52.8.8,0,0,0-.8.6,6.07,6.07,0,0,0-.25,1.76Z"/><circle class="cls-1" cx="39.51" cy="23.67" r="2.49"/></svg>