<svg id="Layer_1" data-name="Layer 1" xmlns="http://www.w3.org/2000/svg" viewBox="0 0 42 42"><defs><style>.cls-1{fill:#5fb832;}</style></defs><title>spring</title><g id="g37"><g id="g39"><path id="path41" class="cls-1" d="M13.83,23.11a.49.49,0,0,1,.26-.9.53.53,0,0,1,.26.07,2.82,2.82,0,0,0,1.51.5c.51,0,.81-.22.81-.56v0c0-.41-.55-.55-1.17-.74s-1.64-.53-1.64-1.53v0a1.68,1.68,0,0,1,1.87-1.6,3.55,3.55,0,0,1,1.64.43.51.51,0,0,1,.29.45.48.48,0,0,1-.49.49.48.48,0,0,1-.24-.06,2.84,2.84,0,0,0-1.23-.36c-.47,0-.74.22-.74.52v0c0,.38.57.54,1.19.74s1.62.59,1.62,1.53v0c0,1.1-.85,1.64-1.94,1.64a3.57,3.57,0,0,1-2-.62"/><path id="path43" class="cls-1" d="M22.42,21v0a1.56,1.56,0,0,0-1.5-1.68A1.58,1.58,0,0,0,19.4,21v0a1.57,1.57,0,0,0,1.52,1.67A1.53,1.53,0,0,0,22.42,21m-4.2-2.11a.6.6,0,1,1,1.2,0v.35a2.12,2.12,0,0,1,1.79-1A2.5,2.5,0,0,1,23.64,21v0a2.5,2.5,0,0,1-2.43,2.71,2.14,2.14,0,0,1-1.79-.92v1.86a.59.59,0,0,1-.6.59.59.59,0,0,1-.6-.59V18.92"/><path id="path45" class="cls-1" d="M24.09,18.92a.6.6,0,1,1,1.2,0v.28c.06-.44.8-.89,1.32-.89a.59.59,0,0,1,.12,1.17,1.82,1.82,0,0,0-1.44,1.93v1.73a.6.6,0,0,1-1.2,0V18.92"/><path id="path47" class="cls-1" d="M27.66,18.92a.6.6,0,0,1,.6-.61.6.6,0,0,1,.6.61v4.22a.6.6,0,0,1-1.2,0V18.92"/><path id="path49" class="cls-1" d="M29.46,18.92a.6.6,0,0,1,1.2,0v.25a1.87,1.87,0,0,1,1.64-.86,1.8,1.8,0,0,1,1.86,2v2.82a.57.57,0,0,1-.59.59.59.59,0,0,1-.61-.59V20.68c0-.81-.4-1.28-1.12-1.28a1.17,1.17,0,0,0-1.18,1.3v2.44a.58.58,0,0,1-.6.59.59.59,0,0,1-.6-.59V18.92"/><path id="path51" class="cls-1" d="M37.34,22.69A1.53,1.53,0,0,1,35.84,21v0a1.55,1.55,0,0,1,1.5-1.68A1.58,1.58,0,0,1,38.86,21v0a1.57,1.57,0,0,1-1.52,1.67m2.1-4.39a.61.61,0,0,0-.61.61v.35a2.09,2.09,0,0,0-1.78-1A2.5,2.5,0,0,0,34.62,21v0a2.5,2.5,0,0,0,2.43,2.71,2.14,2.14,0,0,0,1.78-.91,1.45,1.45,0,0,1-1.65,1.44,3.19,3.19,0,0,1-1.61-.42.48.48,0,0,0-.22-.05.51.51,0,0,0-.5.5.48.48,0,0,0,.33.47,4.52,4.52,0,0,0,2,.47,3,3,0,0,0,2.15-.7,2.72,2.72,0,0,0,.67-2V18.91a.6.6,0,0,0-.59-.61"/><path id="path53" class="cls-1" d="M28.86,16.87a.6.6,0,1,1-.6-.61.6.6,0,0,1,.6.61"/><path id="path55" class="cls-1" d="M9.81,23.37c-1.33,1.78-4.17,1.18-6,1.26a6,6,0,0,0-.65.08,2.09,2.09,0,0,1,.28-.11,20.48,20.48,0,0,0,2.66-.93A6.28,6.28,0,0,0,9.32,19.6a6.58,6.58,0,0,1-3.79,3.6,24.72,24.72,0,0,1-3,.76l-.07,0c-1.3-.63-1.34-3.43,1-4.34,1-.4,2-.18,3.13-.44A4.94,4.94,0,0,0,9.78,16.8C10.41,18.66,11.16,21.57,9.81,23.37Zm0-7.15a5.59,5.59,0,0,1-.57,1A5.39,5.39,0,1,0,1.73,25l.12.11a.46.46,0,0,1,.58-.72.47.47,0,0,1,.06.65.45.45,0,0,1-.64.07l.08.07a5.39,5.39,0,0,0,8.85-3.74,13.26,13.26,0,0,0-.95-5.17"/><path id="path57" class="cls-1" d="M41.44,18.68h-.19v.25h.19a.12.12,0,0,0,.12-.12A.12.12,0,0,0,41.44,18.68Zm.11.62L41.37,19h-.12v.28h-.1v-.71h.29a.22.22,0,0,1,.23.22.2.2,0,0,1-.18.2l.19.29Zm-.17-.88a.52.52,0,0,0,0,1,.52.52,0,1,0,0-1Zm0,1.14a.62.62,0,0,1-.61-.62.62.62,0,1,1,.61.62"/></g></g></svg>